<svg version="1.1" viewBox="0.0 0.0 1280.0 640.0" fill="none" stroke="none" stroke-linecap="square" stroke-miterlimit="10" xmlns:xlink="http://www.w3.org/1999/xlink" xmlns="http://www.w3.org/2000/svg"><clipPath id="p.0"><path d="m0 0l1280.0 0l0 640.0l-1280.0 0l0 -640.0z" clip-rule="nonzero"/></clipPath><g clip-path="url(#p.0)"><path fill="#000000" fill-opacity="0.0" d="m0 0l1280.0 0l0 640.0l-1280.0 0z" fill-rule="evenodd"/><path fill="#000000" fill-opacity="0.0" d="m1270.6154 579.09143l-392.7874 0.81884766" fill-rule="evenodd"/><path stroke="#666666" stroke-width="1.0" stroke-linejoin="round" stroke-linecap="butt" d="m1270.6154 579.09143l-392.7874 0.81884766" fill-rule="evenodd"/><path fill="#000000" fill-opacity="0.0" d="m337.22775 558.912l540.6002 0l0 41.996643l-540.6002 0z" fill-rule="evenodd"/><path fill="#666666" d="m489.14352 585.832l0 -13.359375l4.03125 0l2.421875 9.109375l2.390625 -9.109375l4.046875 0l0 13.359375l-2.5 0l0 -10.515625l-2.65625 10.515625l-2.59375 0l-2.640625 -10.515625l0 10.515625l-2.5 0zm14.962677 -4.96875q0 -1.28125 0.625 -2.46875q0.625 -1.203125 1.78125 -1.828125q1.15625 -0.625 2.578125 -0.625q2.1875 0 3.59375 1.421875q1.40625 1.421875 1.40625 3.609375q0 2.1875 -1.421875 3.640625q-1.421875 1.4375 -3.5625 1.4375q-1.328125 0 -2.546875 -0.59375q-1.203125 -0.609375 -1.828125 -1.765625q-0.625 -1.171875 -0.625 -2.828125zm2.625 0.125q0 1.453125 0.671875 2.21875q0.6875 0.75 1.6875 0.75q1.0 0 1.671875 -0.75q0.6875 -0.765625 0.6875 -2.234375q0 -1.421875 -0.6875 -2.1875q-0.671875 -0.765625 -1.671875 -0.765625q-1.0 0 -1.6875 0.765625q-0.671875 0.765625 -0.671875 2.203125zm8.458496 2.078125l2.5625 -0.390625q0.171875 0.75 0.671875 1.140625q0.5 0.390625 1.40625 0.390625q0.984375 0 1.484375 -0.375q0.34375 -0.25 0.34375 -0.671875q0 -0.296875 -0.1875 -0.484375q-0.1875 -0.1875 -0.859375 -0.34375q-3.09375 -0.6875 -3.921875 -1.25q-1.140625 -0.78125 -1.140625 -2.171875q0 -1.265625 0.984375 -2.109375q1.0 -0.859375 3.078125 -0.859375q1.984375 0 2.953125 0.65625q0.96875 0.640625 1.328125 1.90625l-2.40625 0.4375q-0.15625 -0.5625 -0.59375 -0.859375q-0.421875 -0.296875 -1.234375 -0.296875q-1.0 0 -1.4375 0.28125q-0.296875 0.203125 -0.296875 0.515625q0 0.265625 0.25 0.46875q0.34375 0.25 2.390625 0.71875q2.046875 0.453125 2.859375 1.140625q0.796875 0.671875 0.796875 1.890625q0 1.34375 -1.109375 2.296875q-1.109375 0.953125 -3.28125 0.953125q-1.984375 0 -3.140625 -0.796875q-1.140625 -0.8125 -1.5 -2.1875zm15.719482 -6.90625l0 2.03125l-1.75 0l0 3.90625q0 1.1875 0.046875 1.390625q0.046875 0.1875 0.21875 0.3125q0.1875 0.125 0.4375 0.125q0.359375 0 1.03125 -0.25l0.21875 2.0q-0.890625 0.375 -2.015625 0.375q-0.703125 0 -1.265625 -0.234375q-0.546875 -0.234375 -0.8125 -0.59375q-0.25 -0.375 -0.34375 -1.0q-0.09375 -0.453125 -0.09375 -1.8125l0 -4.21875l-1.171875 0l0 -2.03125l1.171875 0l0 -1.921875l2.578125 -1.5l0 3.421875l1.75 0zm13.31781 9.671875l0 -1.453125q-0.53125 0.78125 -1.390625 1.234375q-0.859375 0.4375 -1.8125 0.4375q-0.96875 0 -1.75 -0.421875q-0.765625 -0.4375 -1.125 -1.203125q-0.34375 -0.78125 -0.34375 -2.140625l0 -6.125l2.5625 0l0 4.4375q0 2.046875 0.140625 2.515625q0.140625 0.453125 0.515625 0.71875q0.375 0.265625 0.953125 0.265625q0.65625 0 1.171875 -0.359375q0.515625 -0.359375 0.703125 -0.890625q0.203125 -0.53125 0.203125 -2.609375l0 -4.078125l2.546875 0l0 9.671875l-2.375 0zm4.130371 -2.765625l2.5625 -0.390625q0.171875 0.75 0.671875 1.140625q0.5 0.390625 1.40625 0.390625q0.984375 0 1.484375 -0.375q0.34375 -0.25 0.34375 -0.671875q0 -0.296875 -0.1875 -0.484375q-0.1875 -0.1875 -0.859375 -0.34375q-3.09375 -0.6875 -3.921875 -1.25q-1.140625 -0.78125 -1.140625 -2.171875q0 -1.265625 0.984375 -2.109375q1.0 -0.859375 3.078125 -0.859375q1.984375 0 2.953125 0.65625q0.96875 0.640625 1.328125 1.90625l-2.40625 0.4375q-0.15625 -0.5625 -0.59375 -0.859375q-0.421875 -0.296875 -1.234375 -0.296875q-1.0 0 -1.4375 0.28125q-0.296875 0.203125 -0.296875 0.515625q0 0.265625 0.25 0.46875q0.34375 0.25 2.390625 0.71875q2.046875 0.453125 2.859375 1.140625q0.796875 0.671875 0.796875 1.890625q0 1.34375 -1.109375 2.296875q-1.109375 0.953125 -3.28125 0.953125q-1.984375 0 -3.140625 -0.796875q-1.140625 -0.8125 -1.5 -2.1875zm16.875732 -0.3125l2.546875 0.421875q-0.484375 1.40625 -1.546875 2.140625q-1.0625 0.734375 -2.65625 0.734375q-2.515625 0 -3.734375 -1.65625q-0.953125 -1.3125 -0.953125 -3.328125q0 -2.40625 1.25 -3.765625q1.265625 -1.359375 3.1875 -1.359375q2.15625 0 3.40625 1.421875q1.25 1.421875 1.1875 4.375l-6.40625 0q0.03125 1.140625 0.609375 1.78125q0.59375 0.625 1.484375 0.625q0.59375 0 1.0 -0.328125q0.421875 -0.328125 0.625 -1.0625zm0.15625 -2.59375q-0.03125 -1.109375 -0.578125 -1.6875q-0.546875 -0.578125 -1.328125 -0.578125q-0.84375 0 -1.390625 0.609375q-0.546875 0.609375 -0.53125 1.65625l3.828125 0zm3.5007324 -4.0l1.421875 0l0 -0.734375q0 -1.21875 0.25 -1.8125q0.265625 -0.609375 0.953125 -0.984375q0.703125 -0.375 1.78125 -0.375q1.09375 0 2.140625 0.328125l-0.359375 1.78125q-0.609375 -0.140625 -1.171875 -0.140625q-0.546875 0 -0.796875 0.265625q-0.234375 0.25 -0.234375 0.984375l0 0.6875l1.90625 0l0 2.015625l-1.90625 0l0 7.65625l-2.5625 0l0 -7.65625l-1.421875 0l0 -2.015625zm13.6970215 9.671875l0 -1.453125q-0.53125 0.78125 -1.390625 1.234375q-0.859375 0.4375 -1.8125 0.4375q-0.96875 0 -1.75 -0.421875q-0.765625 -0.4375 -1.125 -1.203125q-0.34375 -0.78125 -0.34375 -2.140625l0 -6.125l2.5625 0l0 4.4375q0 2.046875 0.140625 2.515625q0.140625 0.453125 0.515625 0.71875q0.375 0.265625 0.953125 0.265625q0.65625 0 1.171875 -0.359375q0.515625 -0.359375 0.703125 -0.890625q0.203125 -0.53125 0.203125 -2.609375l0 -4.078125l2.546875 0l0 9.671875l-2.375 0zm5.036621 0l0 -13.359375l2.5625 0l0 13.359375l-2.5625 0zm12.163513 0l-3.0625 -9.671875l2.484375 0l1.8125 6.34375l1.671875 -6.34375l2.46875 0l1.609375 6.34375l1.859375 -6.34375l2.515625 0l-3.109375 9.671875l-2.453125 0l-1.671875 -6.21875l-1.640625 6.21875l-2.484375 0zm15.261414 -13.359375l0 4.921875q1.234375 -1.453125 2.953125 -1.453125q0.890625 0 1.59375 0.328125q0.71875 0.328125 1.078125 0.84375q0.359375 0.5 0.484375 1.125q0.140625 0.609375 0.140625 1.921875l0 5.671875l-2.5625 0l0 -5.109375q0 -1.515625 -0.15625 -1.921875q-0.140625 -0.421875 -0.515625 -0.65625q-0.359375 -0.25 -0.90625 -0.25q-0.640625 0 -1.140625 0.3125q-0.5 0.3125 -0.734375 0.9375q-0.234375 0.625 -0.234375 1.84375l0 4.84375l-2.5625 0l0 -13.359375l2.5625 0zm14.442871 10.28125l2.546875 0.421875q-0.484375 1.40625 -1.546875 2.140625q-1.0625 0.734375 -2.65625 0.734375q-2.515625 0 -3.734375 -1.65625q-0.953125 -1.3125 -0.953125 -3.328125q0 -2.40625 1.25 -3.765625q1.265625 -1.359375 3.1875 -1.359375q2.15625 0 3.40625 1.421875q1.25 1.421875 1.1875 4.375l-6.40625 0q0.03125 1.140625 0.609375 1.78125q0.59375 0.625 1.484375 0.625q0.59375 0 1.0 -0.328125q0.421875 -0.328125 0.625 -1.0625zm0.15625 -2.59375q-0.03125 -1.109375 -0.578125 -1.6875q-0.546875 -0.578125 -1.328125 -0.578125q-0.84375 0 -1.390625 0.609375q-0.546875 0.609375 -0.53125 1.65625l3.828125 0zm13.422546 5.671875l-2.5625 0l0 -4.9375q0 -1.5625 -0.171875 -2.015625q-0.15625 -0.46875 -0.53125 -0.71875q-0.359375 -0.265625 -0.875 -0.265625q-0.671875 0 -1.203125 0.375q-0.53125 0.359375 -0.734375 0.96875q-0.1875 0.59375 -0.1875 2.21875l0 4.375l-2.546875 0l0 -9.671875l2.375 0l0 1.421875q1.265625 -1.640625 3.1875 -1.640625q0.84375 0 1.546875 0.3125q0.703125 0.296875 1.0625 0.78125q0.359375 0.46875 0.5 1.078125q0.140625 0.59375 0.140625 1.703125l0 6.015625zm6.8761597 -2.765625l2.5625 -0.390625q0.171875 0.75 0.671875 1.140625q0.5 0.390625 1.40625 0.390625q0.984375 0 1.484375 -0.375q0.34375 -0.25 0.34375 -0.671875q0 -0.296875 -0.1875 -0.484375q-0.1875 -0.1875 -0.859375 -0.34375q-3.09375 -0.6875 -3.921875 -1.25q-1.140625 -0.78125 -1.140625 -2.171875q0 -1.265625 0.984375 -2.109375q1.0 -0.859375 3.078125 -0.859375q1.984375 0 2.953125 0.65625q0.96875 0.640625 1.328125 1.90625l-2.40625 0.4375q-0.15625 -0.5625 -0.59375 -0.859375q-0.421875 -0.296875 -1.234375 -0.296875q-1.0 0 -1.4375 0.28125q-0.296875 0.203125 -0.296875 0.515625q0 0.265625 0.25 0.46875q0.34375 0.25 2.390625 0.71875q2.046875 0.453125 2.859375 1.140625q0.796875 0.671875 0.796875 1.890625q0 1.34375 -1.109375 2.296875q-1.109375 0.953125 -3.28125 0.953125q-1.984375 0 -3.140625 -0.796875q-1.140625 -0.8125 -1.5 -2.1875zm15.719482 -6.90625l0 2.03125l-1.75 0l0 3.90625q0 1.1875 0.046875 1.390625q0.046875 0.1875 0.21875 0.3125q0.1875 0.125 0.4375 0.125q0.359375 0 1.03125 -0.25l0.21875 2.0q-0.890625 0.375 -2.015625 0.375q-0.703125 0 -1.265625 -0.234375q-0.546875 -0.234375 -0.8125 -0.59375q-0.25 -0.375 -0.34375 -1.0q-0.09375 -0.453125 -0.09375 -1.8125l0 -4.21875l-1.171875 0l0 -2.03125l1.171875 0l0 -1.921875l2.578125 -1.5l0 3.421875l1.75 0zm8.1345825 9.671875l0 -1.453125q-0.53125 0.78125 -1.390625 1.234375q-0.859375 0.4375 -1.8125 0.4375q-0.96875 0 -1.75 -0.421875q-0.765625 -0.4375 -1.125 -1.203125q-0.34375 -0.78125 -0.34375 -2.140625l0 -6.125l2.5625 0l0 4.4375q0 2.046875 0.140625 2.515625q0.140625 0.453125 0.515625 0.71875q0.375 0.265625 0.953125 0.265625q0.65625 0 1.171875 -0.359375q0.515625 -0.359375 0.703125 -0.890625q0.203125 -0.53125 0.203125 -2.609375l0 -4.078125l2.546875 0l0 9.671875l-2.375 0zm13.91156 0l-2.390625 0l0 -1.421875q-0.59375 0.828125 -1.40625 1.234375q-0.796875 0.40625 -1.609375 0.40625q-1.671875 0 -2.859375 -1.34375q-1.1875 -1.34375 -1.1875 -3.75q0 -2.453125 1.15625 -3.734375q1.15625 -1.28125 2.921875 -1.28125q1.625 0 2.8125 1.34375l0 -4.8125l2.5625 0l0 13.359375zm-6.84375 -5.046875q0 1.546875 0.4375 2.234375q0.609375 1.015625 1.71875 1.015625q0.890625 0 1.5 -0.75q0.625 -0.765625 0.625 -2.25q0 -1.671875 -0.609375 -2.40625q-0.59375 -0.734375 -1.53125 -0.734375q-0.90625 0 -1.53125 0.734375q-0.609375 0.71875 -0.609375 2.15625zm8.145996 -4.625l2.71875 0l2.328125 6.859375l2.25 -6.859375l2.65625 0l-3.421875 9.3125l-0.609375 1.6875q-0.328125 0.84375 -0.640625 1.28125q-0.3125 0.453125 -0.703125 0.71875q-0.390625 0.28125 -0.96875 0.4375q-0.578125 0.15625 -1.3125 0.15625q-0.734375 0 -1.453125 -0.15625l-0.21875 -2.0q0.59375 0.125 1.078125 0.125q0.890625 0 1.3125 -0.53125q0.4375 -0.515625 0.671875 -1.328125l-3.6875 -9.703125zm11.594482 -1.3125l0 -2.375l2.5625 0l0 2.375l-2.5625 0zm0 10.984375l0 -9.671875l2.5625 0l0 9.671875l-2.5625 0zm13.980164 0l-2.5625 0l0 -4.9375q0 -1.5625 -0.171875 -2.015625q-0.15625 -0.46875 -0.53125 -0.71875q-0.359375 -0.265625 -0.875 -0.265625q-0.671875 0 -1.203125 0.375q-0.53125 0.359375 -0.734375 0.96875q-0.1875 0.59375 -0.1875 2.21875l0 4.375l-2.546875 0l0 -9.671875l2.375 0l0 1.421875q1.265625 -1.640625 3.1875 -1.640625q0.84375 0 1.546875 0.3125q0.703125 0.296875 1.0625 0.78125q0.359375 0.46875 0.5 1.078125q0.140625 0.59375 0.140625 1.703125l0 6.015625zm2.364746 0.640625l2.921875 0.359375q0.0625 0.5 0.328125 0.6875q0.375 0.28125 1.15625 0.28125q1.0 0 1.5 -0.296875q0.328125 -0.203125 0.515625 -0.65625q0.109375 -0.3125 0.109375 -1.171875l0 -1.40625q-1.140625 1.5625 -2.890625 1.5625q-1.953125 0 -3.09375 -1.65625q-0.890625 -1.296875 -0.890625 -3.234375q0 -2.4375 1.171875 -3.71875q1.171875 -1.28125 2.90625 -1.28125q1.796875 0 2.96875 1.578125l0 -1.359375l2.390625 0l0 8.671875q0 1.71875 -0.28125 2.5625q-0.28125 0.84375 -0.796875 1.328125q-0.5 0.484375 -1.359375 0.75q-0.84375 0.28125 -2.15625 0.28125q-2.453125 0 -3.484375 -0.84375q-1.03125 -0.84375 -1.03125 -2.125q0 -0.140625 0.015625 -0.3125zm2.28125 -5.671875q0 1.53125 0.59375 2.25q0.59375 0.71875 1.46875 0.71875q0.9375 0 1.578125 -0.734375q0.65625 -0.734375 0.65625 -2.171875q0 -1.515625 -0.625 -2.234375q-0.609375 -0.734375 -1.5625 -0.734375q-0.921875 0 -1.515625 0.71875q-0.59375 0.71875 -0.59375 2.1875z" fill-rule="nonzero"/><path fill="#000000" fill-opacity="0.0" d="m337.22775 579.9103l-336.0 -1.2283325" fill-rule="evenodd"/><path stroke="#666666" stroke-width="1.0" stroke-linejoin="round" stroke-linecap="butt" d="m337.22775 579.9103l-336.0 -1.2283325" fill-rule="evenodd"/><path fill="#000000" fill-opacity="0.0" d="m1234.8711 639.30896l-2.0787354 -195.59058" fill-rule="evenodd"/><path stroke="#666666" stroke-width="1.0" stroke-linejoin="round" stroke-linecap="butt" d="m1234.8711 639.30896l-2.0787354 -195.59058" fill-rule="evenodd"/><path fill="#000000" fill-opacity="0.0" d="m1253.7372 113.00972l0 330.6772l-41.88977 0.06298828l0 -330.67715z" fill-rule="evenodd"/><path fill="#666666" d="m1226.8173 212.86168l13.359375 -0.020095825l0 4.328125q0 2.453125 -0.203125 3.2034302q-0.296875 1.1410675 -1.3125 1.9238434q-1.0 0.7827606 -2.59375 0.78515625q-1.234375 0.0018615723 -2.078125 -0.44999695q-0.828125 -0.45188904 -1.3125 -1.1386566q-0.46875 -0.6867981 -0.625 -1.389679q-0.203125 -0.9684448 -0.203125 -2.7965698l0 -1.765625l-5.03125 0.0075683594l0 -2.6875zm11.09375 2.670807l-3.78125 0.0056915283l0 1.484375q0 1.59375 0.203125 2.1246948q0.203125 0.5465698 0.65625 0.8427582q0.453125 0.3118286 1.03125 0.31095886q0.734375 -0.0011138916 1.203125 -0.4393158q0.484375 -0.42260742 0.59375 -1.07901q0.09375 -0.4845276 0.09375 -1.9376526l0 -1.3125zm-11.09375 12.210266l0 -2.5625l9.671875 -0.014556885l0 2.375l-1.375 0.0020751953q0.984375 0.6078949 1.28125 1.0918274q0.3125 0.48390198 0.3125 1.108902q0 0.875 -0.484375 1.6882324l-2.234375 -0.79351807q0.421875 -0.64126587 0.421875 -1.2037659q0 -0.53125 -0.296875 -0.9058075q-0.296875 -0.37454224 -1.078125 -0.5921173q-0.765625 -0.20198059 -3.234375 -0.1982727l-2.984375 0.004501343zm6.71875 6.7032776l0.421875 -2.3287506q1.40625 0.40412903 2.078125 1.356247q0.671875 0.9521179 0.671875 2.842743q0 1.703125 -0.40625 2.5474854q-0.40625 0.84436035 -1.03125 1.1734314q-0.625 0.3446808 -2.28125 0.34716797l-3.0 -0.011108398q-1.265625 0.0019073486 -1.875 0.112197876q-0.609375 0.12591553 -1.296875 0.47070312l0 -2.53125q0.25 -0.10975647 0.75 -0.25112915q0.234375 -0.06285095 0.3125 -0.09422302q-0.640625 -0.6552887 -0.96875 -1.4048004q-0.3125 -0.733902 -0.3125 -1.593277q0 -1.484375 0.8125 -2.3449707q0.8125 -0.8605957 2.046875 -0.8624573q0.828125 -0.0012359619 1.46875 0.38842773q0.640625 0.38964844 0.96875 1.0922852q0.34375 0.7026062 0.609375 2.0303345q0.328125 1.7963867 0.625 2.483429l0.25 -3.6621094E-4q0.75 -0.0011291504 1.0625 -0.36097717q0.3125 -0.35984802 0.3125 -1.375473q0 -0.6875 -0.28125 -1.0776978q-0.265625 -0.37460327 -0.9375 -0.6079712zm-2.078125 3.425003q-0.15625 -0.48413086 -0.390625 -1.5619049q-0.21875 -1.0621796 -0.4375 -1.3899689q-0.359375 -0.49946594 -0.90625 -0.49864197q-0.53125 8.087158E-4 -0.9375 0.40766907q-0.390625 0.40682983 -0.390625 1.0162048q0 0.703125 0.46875 1.3274231q0.34375 0.4682312 0.84375 0.6081085q0.328125 0.09324646 1.25 0.09187317l0.5 -7.6293945E-4zm2.171875 13.481827l-0.453125 -2.5305786q0.75 -0.12612915 1.125 -0.5798187q0.390625 -0.45370483 0.390625 -1.1724548q0 -0.953125 -0.65625 -1.5302582q-0.65625 -0.56152344 -2.203125 -0.55918884q-1.734375 0.002609253 -2.4375 0.5817871q-0.703125 0.57917786 -0.703125 1.5479279q0 0.734375 0.40625 1.2025146q0.421875 0.4681244 1.421875 0.65411377l-0.421875 2.5162659q-1.734375 -0.38801575 -2.625 -1.5116882q-0.875 -1.1080475 -0.875 -2.9674225q0 -2.125 1.328125 -3.392624q1.34375 -1.2520294 3.71875 -1.2556q2.390625 -0.0035858154 3.71875 1.2600403q1.34375 1.2635956 1.34375 3.4198456q0 1.765625 -0.765625 2.7980347q-0.75 1.0480042 -2.3125 1.519104zm2.859375 6.371414l-2.03125 0.0030822754l0 -1.7500153l-3.90625 0.005874634q-1.1875 0.0017852783 -1.390625 0.048980713q-0.1875 0.04714966 -0.3125 0.21920776q-0.125 0.1876831 -0.125 0.4376831q0 0.359375 0.25 1.0308838l-2.0 0.22174072q-0.375 -0.89004517 -0.375 -2.0150452q0 -0.703125 0.234375 -1.265976q0.234375 -0.5472412 0.59375 -0.81340027q0.375 -0.25056458 1.0 -0.34526062q0.453125 -0.09442139 1.8125 -0.096466064l4.21875 -0.0063476562l0 -1.171875l2.03125 -0.0030517578l0 1.171875l1.921875 -0.0028839111l1.5 2.5758667l-3.421875 0.005142212l0 1.7499847zm1.3125 1.7732239l2.375 -0.0035705566l0 2.5625l-2.375 0.0035705566l0 -2.5625zm-10.984375 0.01651001l9.671875 -0.014556885l0 2.5625l-9.671875 0.014556885l0 -2.5625zm6.8125 13.610535l-0.453125 -2.530548q0.75 -0.12612915 1.125 -0.579834q0.390625 -0.45370483 0.390625 -1.1724548q0 -0.953125 -0.65625 -1.5302734q-0.65625 -0.5614929 -2.203125 -0.5591736q-1.734375 0.0025939941 -2.4375 0.5817871q-0.703125 0.5791931 -0.703125 1.5479431q0 0.734375 0.40625 1.2025146q0.421875 0.46810913 1.421875 0.65411377l-0.421875 2.5162354q-1.734375 -0.3880005 -2.625 -1.5116577q-0.875 -1.1080627 -0.875 -2.9674377q0 -2.125 1.328125 -3.3926392q1.34375 -1.2520142 3.71875 -1.2555847q2.390625 -0.0036010742 3.71875 1.2600403q1.34375 1.2636108 1.34375 3.4198608q0 1.765625 -0.765625 2.7980042q-0.75 1.0480042 -2.3125 1.519104zm-0.09375 3.844635l0.421875 -2.3287659q1.40625 0.4041443 2.078125 1.3562622q0.671875 0.9521179 0.671875 2.842743q0 1.703125 -0.40625 2.5474854q-0.40625 0.84436035 -1.03125 1.1734314q-0.625 0.34466553 -2.28125 0.34716797l-3.0 -0.011108398q-1.265625 0.0018920898 -1.875 0.11218262q-0.609375 0.12591553 -1.296875 0.47070312l0 -2.53125q0.25 -0.10974121 0.75 -0.25112915q0.234375 -0.06283569 0.3125 -0.09420776q-0.640625 -0.65530396 -0.96875 -1.4048157q-0.3125 -0.7338867 -0.3125 -1.5932617q0 -1.484375 0.8125 -2.3449707q0.8125 -0.8605957 2.046875 -0.8624573q0.828125 -0.0012512207 1.46875 0.38842773q0.640625 0.38964844 0.96875 1.0922852q0.34375 0.7026062 0.609375 2.0303345q0.328125 1.7963867 0.625 2.483429l0.25 -3.6621094E-4q0.75 -0.0011291504 1.0625 -0.36099243q0.3125 -0.35983276 0.3125 -1.3754578q0 -0.6875 -0.28125 -1.0776978q-0.265625 -0.37460327 -0.9375 -0.6079712zm-2.078125 3.4249878q-0.15625 -0.48413086 -0.390625 -1.5618896q-0.21875 -1.0621948 -0.4375 -1.3899841q-0.359375 -0.49945068 -0.90625 -0.4986267q-0.53125 7.9345703E-4 -0.9375 0.4076538q-0.390625 0.40682983 -0.390625 1.0162048q0 0.703125 0.46875 1.3274231q0.34375 0.4682312 0.84375 0.6081238q0.328125 0.0932312 1.25 0.09185791l0.5 -7.6293945E-4zm-4.640625 5.0545654l13.359375 -0.020080566l0 2.5625l-13.359375 0.020080566l0 -2.5625zm4.34375 9.688202l0.25 2.6246338q-1.3125 0.23632812 -1.9375 0.95602417q-0.609375 0.7352905 -0.609375 1.9696655q0 1.296875 0.546875 1.952301q0.546875 0.671051 1.28125 0.6699524q0.484375 -7.324219E-4 0.8125 -0.2824707q0.328125 -0.28173828 0.578125 -0.9696045q0.15625 -0.48461914 0.578125 -2.17276q0.546875 -2.157074 1.328125 -3.0332336q1.09375 -1.236023 2.6875 -1.2384338q1.015625 -0.0015258789 1.90625 0.57525635q0.890625 0.5767822 1.34375 1.6542358q0.46875 1.0930481 0.46875 2.639923q0 2.515625 -1.109375 3.7829285q-1.09375 1.282898 -2.9375 1.3481445l-0.109375 -2.702942q1.03125 -0.1734314 1.46875 -0.7522278q0.453125 -0.5631714 0.453125 -1.7037964q0 -1.171875 -0.46875 -1.8430481q-0.3125 -0.42138672 -0.84375 -0.42059326q-0.46875 7.019043E-4 -0.796875 0.4074402q-0.4375 0.5006714 -0.90625 2.4701233q-0.453125 1.9694214 -0.953125 2.9076843q-0.5 0.9538574 -1.359375 1.4864197q-0.859375 0.53253174 -2.125 0.5344238q-1.15625 0.001739502 -2.15625 -0.6373596q-1.0 -0.63912964 -1.484375 -1.8102722q-0.484375 -1.1555176 -0.484375 -2.8898926q0 -2.53125 1.171875 -3.892395q1.171875 -1.361145 3.40625 -1.630127zm5.328125 17.544922l-2.03125 0.0030822754l0 -1.75l-3.90625 0.005859375q-1.1875 0.0018005371 -1.390625 0.048980713q-0.1875 0.04714966 -0.3125 0.21920776q-0.125 0.1876831 -0.125 0.4376831q0 0.359375 0.25 1.0308838l-2.0 0.22174072q-0.375 -0.89004517 -0.375 -2.0150452q0 -0.703125 0.234375 -1.2659912q0.234375 -0.5472107 0.59375 -0.813385q0.375 -0.25054932 1.0 -0.34524536q0.453125 -0.094451904 1.8125 -0.09649658l4.21875 -0.0063171387l0 -1.171875l2.03125 -0.0030822754l0 1.171875l1.921875 -0.0028686523l1.5 2.5758667l-3.421875 0.005126953l0 1.75zm-6.59375 7.378845l-0.421875 2.5475159q-1.40625 -0.4822693 -2.140625 -1.5436401q-0.734375 -1.0614014 -0.734375 -2.6551514q0 -2.515625 1.65625 -3.7368774q1.3125 -0.9550781 3.328125 -0.9581299q2.40625 -0.0036010742 3.765625 1.2443542q1.359375 1.2635803 1.359375 3.1854553q0 2.15625 -1.421875 3.4083862q-1.421875 1.2521362 -4.375 1.1940613l0 -6.40625q-1.140625 0.032989502 -1.78125 0.61206055q-0.625 0.59469604 -0.625 1.485321q0 0.59375 0.328125 0.9995117q0.328125 0.42138672 1.0625 0.62338257zm2.59375 0.15237427q1.109375 -0.032928467 1.6875 -0.5806885q0.578125 -0.5477295 0.578125 -1.3289795q0 -0.84375 -0.609375 -1.3897095q-0.609375 -0.5459595 -1.65625 -0.52874756l0 3.828125zm4.0 4.541565l0 2.390625l-1.421875 0.002166748q0.734375 0.46762085 1.1875 1.2481995q0.453125 0.7962036 0.453125 1.7649536q0 1.6875 -1.328125 2.8613586q-1.3125 1.1738586 -3.671875 1.1773987q-2.421875 0.0036315918 -3.765625 -1.1818237q-1.34375 -1.1854858 -1.34375 -2.8573608q0 -0.8125 0.3125 -1.4692383q0.328125 -0.6411133 1.09375 -1.3609924l-4.875 0.0073242188l0 -2.5625l13.359375 -0.020111084zm-4.671875 2.5382996q-1.625 0.0024414062 -2.40625 0.6442261q-0.78125 0.6574402 -0.78125 1.5793152q0 0.90625 0.71875 1.4832764q0.71875 0.5926819 2.34375 0.5902405q1.515625 -0.0022888184 2.25 -0.61276245q0.75 -0.61050415 0.75 -1.5167542q0 -0.9375 -0.734375 -1.5614014q-0.71875 -0.60827637 -2.140625 -0.60614014zm-2.234375 8.0399475l0.390625 2.5619202q-0.75 0.17297363 -1.140625 0.673584q-0.390625 0.50057983 -0.390625 1.4068298q0 0.984375 0.375 1.4837952q0.25 0.3433838 0.671875 0.34274292q0.296875 -4.272461E-4 0.484375 -0.1882019q0.1875 -0.18780518 0.34375 -0.8598938q0.6875 -3.0947876 1.25 -3.923767q0.78125 -1.1418152 2.171875 -1.1438904q1.265625 -0.0018920898 2.109375 0.9812012q0.859375 0.99871826 0.859375 3.0768433q0 1.984375 -0.65625 2.9541016q-0.640625 0.96972656 -1.90625 1.3309937l-0.4375 -2.4055786q0.5625 -0.15710449 0.859375 -0.59506226q0.296875 -0.42230225 0.296875 -1.2348022q0 -1.0 -0.28125 -1.4371033q-0.203125 -0.29656982 -0.515625 -0.29608154q-0.265625 3.9672852E-4 -0.46875 0.2507019q-0.25 0.3441162 -0.71875 2.391693q-0.453125 2.047577 -1.140625 2.8611145q-0.671875 0.7978821 -1.890625 0.79971313q-1.34375 0.0020141602 -2.296875 -1.1059265q-0.953125 -1.1079407 -0.953125 -3.2798157q0 -1.984375 0.796875 -3.1418152q0.8125 -1.1418457 2.1875 -1.5032959z" fill-rule="nonzero"/><path fill="#000000" fill-opacity="0.0" d="m1233.4233 113.010796l-1.2547607 -113.63811" fill-rule="evenodd"/><path stroke="#666666" stroke-width="1.0" stroke-linejoin="round" stroke-linecap="butt" d="m1233.4233 113.010796l-1.2547607 -113.63811" fill-rule="evenodd"/><path fill="#000000" fill-opacity="0.0" d="m274.48734 120.7896l658.48303 0l0 80.81717l-658.48303 0z" fill-rule="evenodd"/><path fill="#3c78d8" d="m475.19037 178.4296l0 -31.984375l-11.953125 0l0 -4.28125l28.734375 0l0 4.28125l-11.984375 0l0 31.984375l-4.796875 0zm45.50537 -36.265625l4.796875 0l0 20.953125q0 5.46875 -1.234375 8.6875q-1.234375 3.21875 -4.46875 5.234375q-3.21875 2.015625 -8.46875 2.015625q-5.09375 0 -8.34375 -1.75q-3.234375 -1.765625 -4.625 -5.09375q-1.375 -3.328125 -1.375 -9.09375l0 -20.953125l4.796875 0l0 20.9375q0 4.71875 0.875 6.953125q0.875 2.234375 3.015625 3.453125q2.140625 1.21875 5.234375 1.21875q5.296875 0 7.546875 -2.40625q2.25 -2.40625 2.25 -9.21875l0 -20.9375zm22.019836 36.265625l0 -31.984375l-11.953125 0l0 -4.28125l28.734375 0l0 4.28125l-11.984375 0l0 31.984375l-4.796875 0zm19.339966 -17.65625q0 -9.03125 4.84375 -14.140625q4.84375 -5.109375 12.515625 -5.109375q5.015625 0 9.046875 2.40625q4.03125 2.390625 6.140625 6.6875q2.125 4.296875 2.125 9.734375q0 5.515625 -2.234375 9.875q-2.21875 4.34375 -6.296875 6.59375q-4.078125 2.234375 -8.8125 2.234375q-5.109375 0 -9.140625 -2.46875q-4.03125 -2.484375 -6.109375 -6.765625q-2.078125 -4.28125 -2.078125 -9.046875zm4.9375 0.0625q0 6.5625 3.515625 10.34375q3.53125 3.765625 8.859375 3.765625q5.421875 0 8.90625 -3.8125q3.5 -3.8125 3.5 -10.8125q0 -4.421875 -1.5 -7.71875q-1.484375 -3.3125 -4.375 -5.125q-2.875 -1.8125 -6.453125 -1.8125q-5.109375 0 -8.78125 3.5q-3.671875 3.5 -3.671875 11.671875zm35.99585 17.59375l0 -36.265625l16.078125 0q4.84375 0 7.359375 0.984375q2.53125 0.96875 4.03125 3.453125q1.515625 2.46875 1.515625 5.46875q0 3.84375 -2.5 6.5q-2.5 2.640625 -7.71875 3.359375q1.90625 0.921875 2.90625 1.8125q2.09375 1.921875 3.96875 4.8125l6.3125 9.875l-6.03125 0l-4.796875 -7.546875q-2.109375 -3.265625 -3.46875 -4.984375q-1.359375 -1.734375 -2.4375 -2.421875q-1.078125 -0.703125 -2.1875 -0.96875q-0.8125 -0.1875 -2.671875 -0.1875l-5.5625 0l0 16.109375l-4.796875 0zm4.796875 -20.25l10.3125 0q3.296875 0 5.140625 -0.6875q1.859375 -0.6875 2.828125 -2.171875q0.96875 -1.5 0.96875 -3.25q0 -2.578125 -1.875 -4.234375q-1.859375 -1.65625 -5.90625 -1.65625l-11.46875 0l0 12.0zm32.519775 20.25l0 -36.265625l4.796875 0l0 36.265625l-4.796875 0zm9.2771 0l13.921875 -36.265625l5.171875 0l14.84375 36.265625l-5.46875 0l-4.21875 -10.984375l-15.171875 0l-3.984375 10.984375l-5.09375 0zm10.46875 -14.890625l12.296875 0l-3.796875 -10.046875q-1.71875 -4.578125 -2.5625 -7.515625q-0.703125 3.484375 -1.953125 6.921875l-3.984375 10.640625zm27.099792 14.890625l0 -36.265625l4.8125 0l0 31.984375l17.84375 0l0 4.28125l-22.65625 0zm26.750732 -11.65625l4.515625 -0.390625q0.328125 2.71875 1.5 4.46875q1.171875 1.734375 3.640625 2.8125q2.484375 1.078125 5.578125 1.078125q2.734375 0 4.84375 -0.8125q2.109375 -0.8125 3.125 -2.234375q1.03125 -1.421875 1.03125 -3.109375q0 -1.703125 -1.0 -2.96875q-0.984375 -1.28125 -3.25 -2.15625q-1.46875 -0.5625 -6.46875 -1.765625q-4.984375 -1.203125 -6.984375 -2.265625q-2.609375 -1.359375 -3.890625 -3.375q-1.265625 -2.015625 -1.265625 -4.515625q0 -2.734375 1.5625 -5.125q1.5625 -2.390625 4.546875 -3.625q3.0 -1.234375 6.65625 -1.234375q4.03125 0 7.109375 1.296875q3.078125 1.296875 4.734375 3.828125q1.65625 2.515625 1.78125 5.703125l-4.59375 0.34375q-0.375 -3.4375 -2.515625 -5.1875q-2.140625 -1.765625 -6.3125 -1.765625q-4.359375 0 -6.359375 1.609375q-1.984375 1.59375 -1.984375 3.84375q0 1.953125 1.421875 3.203125q1.375 1.265625 7.21875 2.59375q5.859375 1.328125 8.03125 2.3125q3.171875 1.453125 4.671875 3.703125q1.515625 2.234375 1.515625 5.15625q0 2.890625 -1.65625 5.453125q-1.65625 2.5625 -4.765625 3.984375q-3.09375 1.421875 -6.984375 1.421875q-4.921875 0 -8.25 -1.4375q-3.328125 -1.4375 -5.21875 -4.3125q-1.890625 -2.890625 -1.984375 -6.53125z" fill-rule="nonzero"/><path fill="#000000" fill-opacity="0.0" d="m253.12743 326.01852l701.2029 0l0 48.466766l-701.2029 0z" fill-rule="evenodd"/><path fill="#741b47" d="m478.80893 358.05853l0 -17.1875l2.265625 0l0 15.15625l8.46875 0l0 2.03125l-10.734375 0zm13.488281 0l0 -17.1875l12.421875 0l0 2.03125l-10.15625 0l0 5.265625l9.5 0l0 2.015625l-9.5 0l0 5.84375l10.546875 0l0 2.03125l-12.8125 0zm14.0703125 0l6.5937805 -17.1875l2.453125 0l7.03125 17.1875l-2.59375 0l-2.0 -5.203125l-7.1875305 0l-1.890625 5.203125l-2.40625 0zm4.953125 -7.0625l5.8281555 0l-1.796875 -4.75q-0.8125 -2.171875 -1.21875 -3.5625q-0.328125 1.65625 -0.921875 3.28125l-1.8906555 5.03125zm12.976593 7.0625l0 -17.1875l7.609375 0q2.296875 0 3.484375 0.46875q1.203125 0.46875 1.921875 1.640625q0.71875 1.171875 0.71875 2.578125q0 1.828125 -1.1875 3.09375q-1.1875 1.25 -3.65625 1.59375q0.90625 0.421875 1.375 0.84375q1.0 0.921875 1.890625 2.296875l2.984375 4.671875l-2.859375 0l-2.28125 -3.578125q-0.984375 -1.546875 -1.640625 -2.359375q-0.640625 -0.828125 -1.15625 -1.15625q-0.5 -0.328125 -1.03125 -0.453125q-0.390625 -0.078125 -1.265625 -0.078125l-2.640625 0l0 7.625l-2.265625 0zm2.265625 -9.59375l4.890625 0q1.5625 0 2.4375 -0.328125q0.875 -0.328125 1.328125 -1.03125q0.46875 -0.703125 0.46875 -1.546875q0 -1.21875 -0.890625 -2.0q-0.875 -0.78125 -2.796875 -0.78125l-5.4375 0l0 5.6875zm15.003906 9.59375l0 -17.1875l2.328125 0l9.03125 13.5l0 -13.5l2.171875 0l0 17.1875l-2.328125 0l-9.015625 -13.5l0 13.5l-2.1875 0zm17.738281 0l0 -17.1875l2.28125 0l0 17.1875l-2.28125 0zm6.2617188 0l0 -17.1875l2.328125 0l9.03125 13.5l0 -13.5l2.171875 0l0 17.1875l-2.328125 0l-9.015625 -13.5l0 13.5l-2.1875 0zm25.394531 -6.734375l0 -2.015625l7.28125 -0.015625l0 6.375q-1.671875 1.328125 -3.453125 2.015625q-1.78125 0.671875 -3.65625 0.671875q-2.53125 0 -4.609375 -1.078125q-2.0625 -1.09375 -3.125 -3.140625q-1.046875 -2.0625 -1.046875 -4.59375q0 -2.5 1.046875 -4.671875q1.046875 -2.171875 3.015625 -3.21875q1.96875 -1.0625 4.53125 -1.0625q1.875 0 3.375 0.609375q1.5 0.59375 2.359375 1.671875q0.859375 1.078125 1.296875 2.8125l-2.046875 0.5625q-0.390625 -1.3125 -0.96875 -2.0625q-0.5625 -0.75 -1.640625 -1.203125q-1.0625 -0.453125 -2.359375 -0.453125q-1.5625 0 -2.703125 0.484375q-1.125 0.46875 -1.828125 1.25q-0.6875 0.765625 -1.078125 1.6875q-0.65625 1.59375 -0.65625 3.453125q0 2.296875 0.78125 3.84375q0.796875 1.546875 2.3125 2.296875q1.515625 0.75 3.203125 0.75q1.484375 0 2.890625 -0.5625q1.40625 -0.5625 2.125 -1.21875l0 -3.1875l-5.046875 0zm16.601562 -1.640625q0 -4.265625 2.296875 -6.6875q2.296875 -2.421875 5.9375 -2.421875q2.375 0 4.28125 1.140625q1.921875 1.125 2.921875 3.171875q1.0 2.03125 1.0 4.609375q0 2.609375 -1.0625 4.671875q-1.046875 2.0625 -2.984375 3.125q-1.9375 1.0625 -4.171875 1.0625q-2.421875 0 -4.34375 -1.171875q-1.90625 -1.171875 -2.890625 -3.203125q-0.984375 -2.03125 -0.984375 -4.296875zm2.34375 0.046875q0 3.09375 1.671875 4.890625q1.671875 1.78125 4.1875 1.78125q2.578125 0 4.234375 -1.796875q1.65625 -1.8125 1.65625 -5.125q0 -2.09375 -0.71875 -3.65625q-0.703125 -1.578125 -2.078125 -2.4375q-1.359375 -0.859375 -3.046875 -0.859375q-2.421875 0 -4.171875 1.65625q-1.734375 1.65625 -1.734375 5.546875zm17.058594 8.328125l0 -17.1875l7.609375 0q2.296875 0 3.484375 0.46875q1.203125 0.46875 1.921875 1.640625q0.71875 1.171875 0.71875 2.578125q0 1.828125 -1.1875 3.09375q-1.1875 1.25 -3.65625 1.59375q0.90625 0.421875 1.375 0.84375q1.0 0.921875 1.890625 2.296875l2.984375 4.671875l-2.859375 0l-2.28125 -3.578125q-0.984375 -1.546875 -1.640625 -2.359375q-0.640625 -0.828125 -1.15625 -1.15625q-0.5 -0.328125 -1.03125 -0.453125q-0.390625 -0.078125 -1.265625 -0.078125l-2.640625 0l0 7.625l-2.265625 0zm2.265625 -9.59375l4.890625 0q1.5625 0 2.4375 -0.328125q0.875 -0.328125 1.328125 -1.03125q0.46875 -0.703125 0.46875 -1.546875q0 -1.21875 -0.890625 -2.0q-0.875 -0.78125 -2.796875 -0.78125l-5.4375 0l0 5.6875zm15.410156 9.59375l0 -17.1875l2.28125 0l0 17.1875l-2.28125 0zm6.3398438 0l0 -17.1875l12.421875 0l0 2.03125l-10.15625 0l0 5.265625l9.5 0l0 2.015625l-9.5 0l0 5.84375l10.546875 0l0 2.03125l-12.8125 0zm15.9296875 0l0 -17.1875l2.328125 0l9.03125 13.5l0 -13.5l2.171875 0l0 17.1875l-2.328125 0l-9.015625 -13.5l0 13.5l-2.1875 0zm21.722656 0l0 -15.15625l-5.65625 0l0 -2.03125l13.625 0l0 2.03125l-5.6875 0l0 15.15625l-2.28125 0zm10.347656 0l0 -17.1875l12.421875 0l0 2.03125l-10.15625 0l0 5.265625l9.5 0l0 2.015625l-9.5 0l0 5.84375l10.546875 0l0 2.03125l-12.8125 0zm15.9609375 0l0 -17.1875l5.90625 0q2.015625 0 3.0625 0.25q1.484375 0.34375 2.515625 1.234375q1.359375 1.140625 2.03125 2.9375q0.6875 1.78125 0.6875 4.078125q0 1.953125 -0.46875 3.46875q-0.453125 1.515625 -1.171875 2.515625q-0.703125 0.984375 -1.5625 1.546875q-0.84375 0.5625 -2.046875 0.859375q-1.203125 0.296875 -2.765625 0.296875l-6.1875 0zm2.265625 -2.03125l3.671875 0q1.703125 0 2.65625 -0.3125q0.96875 -0.3125 1.546875 -0.890625q0.8125 -0.8125 1.265625 -2.171875q0.453125 -1.375 0.453125 -3.3125q0 -2.703125 -0.890625 -4.140625q-0.890625 -1.453125 -2.15625 -1.9375q-0.90625 -0.359375 -2.9375 -0.359375l-3.609375 0l0 13.125z" fill-rule="nonzero"/><path fill="#000000" fill-opacity="0.0" d="m75.03937 475.32547l304.25198 0l0 42.015717l-304.25198 0z" fill-rule="evenodd"/><path fill="#434343" d="m85.77374 502.24545l0 -13.359375l1.765625 0l0 13.359375l-1.765625 0zm4.683304 0l0 -9.671875l1.46875 0l0 1.359375q0.453125 -0.71875 1.203125 -1.140625q0.765625 -0.4375 1.71875 -0.4375q1.078125 0 1.765625 0.453125q0.6875 0.4375 0.96875 1.234375q1.15625 -1.6875 2.984375 -1.6875q1.453125 0 2.21875 0.796875q0.78125 0.796875 0.78125 2.453125l0 6.640625l-1.640625 0l0 -6.09375q0 -0.984375 -0.15625 -1.40625q-0.15625 -0.4375 -0.578125 -0.703125q-0.421875 -0.265625 -0.984375 -0.265625q-1.015625 0 -1.6875 0.6875q-0.671875 0.671875 -0.671875 2.15625l0 5.625l-1.640625 0l0 -6.28125q0 -1.09375 -0.40625 -1.640625q-0.40625 -0.546875 -1.3125 -0.546875q-0.6875 0 -1.28125 0.359375q-0.59375 0.359375 -0.859375 1.0625q-0.25 0.703125 -0.25 2.03125l0 5.015625l-1.640625 0zm21.853302 -1.1875q-0.921875 0.765625 -1.765625 1.09375q-0.828125 0.3125 -1.796875 0.3125q-1.59375 0 -2.453125 -0.78125q-0.859375 -0.78125 -0.859375 -1.984375q0 -0.71875 0.328125 -1.296875q0.328125 -0.59375 0.84375 -0.9375q0.53125 -0.359375 1.1875 -0.546875q0.46875 -0.125 1.453125 -0.25q1.984375 -0.234375 2.921875 -0.5625q0.015625 -0.34375 0.015625 -0.421875q0 -1.0 -0.46875 -1.421875q-0.625 -0.546875 -1.875 -0.546875q-1.15625 0 -1.703125 0.40625q-0.546875 0.40625 -0.8125 1.421875l-1.609375 -0.21875q0.21875 -1.015625 0.71875 -1.640625q0.5 -0.640625 1.453125 -0.984375q0.953125 -0.34375 2.1875 -0.34375q1.25 0 2.015625 0.296875q0.78125 0.28125 1.140625 0.734375q0.375 0.4375 0.515625 1.109375q0.078125 0.421875 0.078125 1.515625l0 2.1875q0 2.28125 0.109375 2.890625q0.109375 0.59375 0.40625 1.15625l-1.703125 0q-0.265625 -0.515625 -0.328125 -1.1875zm-0.140625 -3.671875q-0.890625 0.375 -2.671875 0.625q-1.015625 0.140625 -1.4375 0.328125q-0.421875 0.1875 -0.65625 0.53125q-0.21875 0.34375 -0.21875 0.78125q0 0.65625 0.5 1.09375q0.5 0.4375 1.453125 0.4375q0.9375 0 1.671875 -0.40625q0.75 -0.421875 1.09375 -1.140625q0.265625 -0.5625 0.265625 -1.640625l0 -0.609375zm3.8913422 5.65625l1.59375 0.234375q0.109375 0.75 0.5625 1.078125q0.609375 0.453125 1.671875 0.453125q1.140625 0 1.75 -0.453125q0.625 -0.453125 0.84375 -1.265625q0.125 -0.5 0.109375 -2.109375q-1.0625 1.265625 -2.671875 1.265625q-2.0 0 -3.09375 -1.4375q-1.09375 -1.4375 -1.09375 -3.453125q0 -1.390625 0.5 -2.5625q0.515625 -1.171875 1.453125 -1.796875q0.953125 -0.640625 2.25 -0.640625q1.703125 0 2.8125 1.375l0 -1.15625l1.515625 0l0 8.359375q0 2.265625 -0.46875 3.203125q-0.453125 0.9375 -1.453125 1.484375q-0.984375 0.546875 -2.453125 0.546875q-1.71875 0 -2.796875 -0.78125q-1.0625 -0.765625 -1.03125 -2.34375zm1.359375 -5.8125q0 1.90625 0.75 2.78125q0.765625 0.875 1.90625 0.875q1.125 0 1.890625 -0.859375q0.765625 -0.875 0.765625 -2.734375q0 -1.78125 -0.796875 -2.671875q-0.78125 -0.90625 -1.890625 -0.90625q-1.09375 0 -1.859375 0.890625q-0.765625 0.875 -0.765625 2.625zm15.953842 1.90625l1.6875 0.203125q-0.40625 1.484375 -1.484375 2.3125q-1.078125 0.8125 -2.765625 0.8125q-2.125 0 -3.375 -1.296875q-1.234375 -1.3125 -1.234375 -3.671875q0 -2.453125 1.25 -3.796875q1.265625 -1.34375 3.265625 -1.34375q1.9375 0 3.15625 1.328125q1.234375 1.3125 1.234375 3.703125q0 0.15625 0 0.4375l-7.21875 0q0.09375 1.59375 0.90625 2.453125q0.8125 0.84375 2.015625 0.84375q0.90625 0 1.546875 -0.46875q0.640625 -0.484375 1.015625 -1.515625zm-5.390625 -2.65625l5.40625 0q-0.109375 -1.21875 -0.625 -1.828125q-0.78125 -0.953125 -2.03125 -0.953125q-1.125 0 -1.90625 0.765625q-0.765625 0.75 -0.84375 2.015625zm14.715271 5.765625l0 -8.40625l-1.453125 0l0 -1.265625l1.453125 0l0 -1.03125q0 -0.96875 0.171875 -1.453125q0.234375 -0.640625 0.828125 -1.03125q0.59375 -0.390625 1.671875 -0.390625q0.6875 0 1.53125 0.15625l-0.25 1.4375q-0.5 -0.09375 -0.953125 -0.09375q-0.75 0 -1.0625 0.328125q-0.3125 0.3125 -0.3125 1.1875l0 0.890625l1.890625 0l0 1.265625l-1.890625 0l0 8.40625l-1.625 0zm4.777054 0l0 -9.671875l1.46875 0l0 1.46875q0.5625 -1.03125 1.03125 -1.359375q0.484375 -0.328125 1.0625 -0.328125q0.828125 0 1.6875 0.53125l-0.5625 1.515625q-0.609375 -0.359375 -1.203125 -0.359375q-0.546875 0 -0.96875 0.328125q-0.421875 0.328125 -0.609375 0.890625q-0.28125 0.875 -0.28125 1.921875l0 5.0625l-1.625 0zm5.618927 -4.84375q0 -2.6875 1.484375 -3.96875q1.25 -1.078125 3.046875 -1.078125q2.0 0 3.265625 1.3125q1.265625 1.296875 1.265625 3.609375q0 1.859375 -0.5625 2.9375q-0.5625 1.0625 -1.640625 1.65625q-1.0625 0.59375 -2.328125 0.59375q-2.03125 0 -3.28125 -1.296875q-1.25 -1.3125 -1.25 -3.765625zm1.6875 0q0 1.859375 0.796875 2.796875q0.8125 0.921875 2.046875 0.921875q1.21875 0 2.03125 -0.921875q0.8125 -0.9375 0.8125 -2.84375q0 -1.796875 -0.8125 -2.71875q-0.8125 -0.921875 -2.03125 -0.921875q-1.234375 0 -2.046875 0.921875q-0.796875 0.90625 -0.796875 2.765625zm9.297592 4.84375l0 -9.671875l1.46875 0l0 1.359375q0.453125 -0.71875 1.203125 -1.140625q0.765625 -0.4375 1.71875 -0.4375q1.078125 0 1.765625 0.453125q0.6875 0.4375 0.96875 1.234375q1.15625 -1.6875 2.984375 -1.6875q1.453125 0 2.21875 0.796875q0.78125 0.796875 0.78125 2.453125l0 6.640625l-1.640625 0l0 -6.09375q0 -0.984375 -0.15625 -1.40625q-0.15625 -0.4375 -0.578125 -0.703125q-0.421875 -0.265625 -0.984375 -0.265625q-1.015625 0 -1.6875 0.6875q-0.671875 0.671875 -0.671875 2.15625l0 5.625l-1.640625 0l0 -6.28125q0 -1.09375 -0.40625 -1.640625q-0.40625 -0.546875 -1.3125 -0.546875q-0.6875 0 -1.28125 0.359375q-0.59375 0.359375 -0.859375 1.0625q-0.25 0.703125 -0.25 2.03125l0 5.015625l-1.640625 0zm20.724106 0l0 -13.359375l1.640625 0l0 4.796875q1.140625 -1.328125 2.890625 -1.328125q1.078125 0 1.859375 0.421875q0.796875 0.421875 1.140625 1.171875q0.34375 0.75 0.34375 2.171875l0 6.125l-1.640625 0l0 -6.125q0 -1.234375 -0.53125 -1.796875q-0.53125 -0.5625 -1.515625 -0.5625q-0.71875 0 -1.359375 0.390625q-0.640625 0.375 -0.921875 1.015625q-0.265625 0.640625 -0.265625 1.78125l0 5.296875l-1.640625 0zm13.953842 -1.46875l0.234375 1.453125q-0.6875 0.140625 -1.234375 0.140625q-0.890625 0 -1.390625 -0.28125q-0.484375 -0.28125 -0.6875 -0.734375q-0.203125 -0.46875 -0.203125 -1.9375l0 -5.578125l-1.203125 0l0 -1.265625l1.203125 0l0 -2.390625l1.625 -0.984375l0 3.375l1.65625 0l0 1.265625l-1.65625 0l0 5.671875q0 0.6875 0.078125 0.890625q0.09375 0.203125 0.28125 0.328125q0.203125 0.109375 0.578125 0.109375q0.265625 0 0.71875 -0.0625zm5.183304 0l0.234375 1.453125q-0.6875 0.140625 -1.234375 0.140625q-0.890625 0 -1.390625 -0.28125q-0.484375 -0.28125 -0.6875 -0.734375q-0.203125 -0.46875 -0.203125 -1.9375l0 -5.578125l-1.203125 0l0 -1.265625l1.203125 0l0 -2.390625l1.625 -0.984375l0 3.375l1.65625 0l0 1.265625l-1.65625 0l0 5.671875q0 0.6875 0.078125 0.890625q0.09375 0.203125 0.28125 0.328125q0.203125 0.109375 0.578125 0.109375q0.265625 0 0.71875 -0.0625zm1.6051788 5.171875l0 -13.375l1.484375 0l0 1.25q0.53125 -0.734375 1.1875 -1.09375q0.671875 -0.375 1.625 -0.375q1.234375 0 2.171875 0.640625q0.953125 0.625 1.4375 1.796875q0.484375 1.15625 0.484375 2.546875q0 1.484375 -0.53125 2.671875q-0.53125 1.1875 -1.546875 1.828125q-1.015625 0.625 -2.140625 0.625q-0.8125 0 -1.46875 -0.34375q-0.65625 -0.34375 -1.0625 -0.875l0 4.703125l-1.640625 0zm1.484375 -8.484375q0 1.859375 0.75 2.765625q0.765625 0.890625 1.828125 0.890625q1.09375 0 1.875 -0.921875q0.78125 -0.9375 0.78125 -2.875q0 -1.84375 -0.765625 -2.765625q-0.75 -0.921875 -1.8125 -0.921875q-1.046875 0 -1.859375 0.984375q-0.796875 0.96875 -0.796875 2.84375zm8.235092 1.890625l1.625 -0.25q0.125 0.96875 0.75 1.5q0.625 0.515625 1.75 0.515625q1.125 0 1.671875 -0.453125q0.546875 -0.46875 0.546875 -1.09375q0 -0.546875 -0.484375 -0.875q-0.328125 -0.21875 -1.671875 -0.546875q-1.8125 -0.46875 -2.515625 -0.796875q-0.6875 -0.328125 -1.046875 -0.90625q-0.359375 -0.59375 -0.359375 -1.3125q0 -0.640625 0.296875 -1.1875q0.296875 -0.5625 0.8125 -0.921875q0.375 -0.28125 1.03125 -0.46875q0.671875 -0.203125 1.421875 -0.203125q1.140625 0 2.0 0.328125q0.859375 0.328125 1.265625 0.890625q0.421875 0.5625 0.578125 1.5l-1.609375 0.21875q-0.109375 -0.75 -0.640625 -1.171875q-0.515625 -0.421875 -1.46875 -0.421875q-1.140625 0 -1.625 0.375q-0.46875 0.375 -0.46875 0.875q0 0.3125 0.1875 0.578125q0.203125 0.265625 0.640625 0.4375q0.234375 0.09375 1.4375 0.421875q1.75 0.453125 2.4375 0.75q0.6875 0.296875 1.078125 0.859375q0.390625 0.5625 0.390625 1.40625q0 0.828125 -0.484375 1.546875q-0.46875 0.71875 -1.375 1.125q-0.90625 0.390625 -2.046875 0.390625q-1.875 0 -2.875 -0.78125q-0.984375 -0.78125 -1.25 -2.328125zm10.4375 -4.921875l0 -1.859375l1.859375 0l0 1.859375l-1.859375 0zm0 7.8125l0 -1.875l1.859375 0l0 1.875l-1.859375 0zm3.4958038 0.234375l3.875 -13.8125l1.3125 0l-3.859375 13.8125l-1.328125 0zm5.183304 0l3.875 -13.8125l1.3125 0l-3.859375 13.8125l-1.328125 0zm12.683304 -0.234375l0 -1.21875q-0.90625 1.4375 -2.703125 1.4375q-1.15625 0 -2.125 -0.640625q-0.96875 -0.640625 -1.5 -1.78125q-0.53125 -1.140625 -0.53125 -2.625q0 -1.453125 0.484375 -2.625q0.484375 -1.1875 1.4375 -1.8125q0.96875 -0.625 2.171875 -0.625q0.875 0 1.546875 0.375q0.6875 0.359375 1.109375 0.953125l0 -4.796875l1.640625 0l0 13.359375l-1.53125 0zm-5.171875 -4.828125q0 1.859375 0.78125 2.78125q0.78125 0.921875 1.84375 0.921875q1.078125 0 1.828125 -0.875q0.75 -0.890625 0.75 -2.6875q0 -1.984375 -0.765625 -2.90625q-0.765625 -0.9375 -1.890625 -0.9375q-1.078125 0 -1.8125 0.890625q-0.734375 0.890625 -0.734375 2.8125zm9.281967 -6.640625l0 -1.890625l1.640625 0l0 1.890625l-1.640625 0zm0 11.46875l0 -9.671875l1.640625 0l0 9.671875l-1.640625 0zm10.457336 -1.1875q-0.921875 0.765625 -1.765625 1.09375q-0.828125 0.3125 -1.796875 0.3125q-1.59375 0 -2.4531403 -0.78125q-0.859375 -0.78125 -0.859375 -1.984375q0 -0.71875 0.328125 -1.296875q0.328125 -0.59375 0.84375 -0.9375q0.53126526 -0.359375 1.1875153 -0.546875q0.46875 -0.125 1.453125 -0.25q1.984375 -0.234375 2.921875 -0.5625q0.015625 -0.34375 0.015625 -0.421875q0 -1.0 -0.46875 -1.421875q-0.625 -0.546875 -1.875 -0.546875q-1.15625 0 -1.703125 0.40625q-0.546875 0.40625 -0.8125 1.421875l-1.6093903 -0.21875q0.21875 -1.015625 0.71875 -1.640625q0.50001526 -0.640625 1.4531403 -0.984375q0.953125 -0.34375 2.1875 -0.34375q1.25 0 2.015625 0.296875q0.78125 0.28125 1.140625 0.734375q0.375 0.4375 0.515625 1.109375q0.078125 0.421875 0.078125 1.515625l0 2.1875q0 2.28125 0.109375 2.890625q0.109375 0.59375 0.40625 1.15625l-1.703125 0q-0.265625 -0.515625 -0.328125 -1.1875zm-0.140625 -3.671875q-0.890625 0.375 -2.671875 0.625q-1.015625 0.140625 -1.4375 0.328125q-0.421875 0.1875 -0.65625 0.53125q-0.21875 0.34375 -0.21875 0.78125q0 0.65625 0.5 1.09375q0.5 0.4375 1.453125 0.4375q0.9375 0 1.671875 -0.40625q0.75 -0.421875 1.09375 -1.140625q0.265625 -0.5625 0.265625 -1.640625l0 -0.609375zm7.781952 3.390625l0.234375 1.453125q-0.6875 0.140625 -1.234375 0.140625q-0.890625 0 -1.390625 -0.28125q-0.484375 -0.28125 -0.6875 -0.734375q-0.203125 -0.46875 -0.203125 -1.9375l0 -5.578125l-1.203125 0l0 -1.265625l1.203125 0l0 -2.390625l1.625 -0.984375l0 3.375l1.65625 0l0 1.265625l-1.65625 0l0 5.671875q0 0.6875 0.078125 0.890625q0.09375 0.203125 0.28125 0.328125q0.203125 0.109375 0.578125 0.109375q0.265625 0 0.71875 -0.0625zm7.917694 0.28125q-0.921875 0.765625 -1.765625 1.09375q-0.828125 0.3125 -1.796875 0.3125q-1.59375 0 -2.453125 -0.78125q-0.859375 -0.78125 -0.859375 -1.984375q0 -0.71875 0.328125 -1.296875q0.328125 -0.59375 0.84375 -0.9375q0.53125 -0.359375 1.1875 -0.546875q0.46875 -0.125 1.453125 -0.25q1.984375 -0.234375 2.921875 -0.5625q0.015625 -0.34375 0.015625 -0.421875q0 -1.0 -0.46875 -1.421875q-0.625 -0.546875 -1.875 -0.546875q-1.15625 0 -1.703125 0.40625q-0.546875 0.40625 -0.8125 1.421875l-1.609375 -0.21875q0.21875 -1.015625 0.71875 -1.640625q0.5 -0.640625 1.453125 -0.984375q0.953125 -0.34375 2.1875 -0.34375q1.25 0 2.015625 0.296875q0.78125 0.28125 1.140625 0.734375q0.375 0.4375 0.515625 1.109375q0.078125 0.421875 0.078125 1.515625l0 2.1875q0 2.28125 0.109375 2.890625q0.109375 0.59375 0.40625 1.15625l-1.703125 0q-0.265625 -0.515625 -0.328125 -1.1875zm-0.140625 -3.671875q-0.890625 0.375 -2.671875 0.625q-1.015625 0.140625 -1.4375 0.328125q-0.421875 0.1875 -0.65625 0.53125q-0.21875 0.34375 -0.21875 0.78125q0 0.65625 0.5 1.09375q0.5 0.4375 1.453125 0.4375q0.9375 0 1.671875 -0.40625q0.75 -0.421875 1.09375 -1.140625q0.265625 -0.5625 0.265625 -1.640625l0 -0.609375zm3.110077 4.859375l3.53125 -5.03125l-3.265625 -4.640625l2.046875 0l1.484375 2.265625q0.421875 0.640625 0.671875 1.078125q0.40625 -0.59375 0.734375 -1.0625l1.640625 -2.28125l1.953125 0l-3.34375 4.546875l3.59375 5.125l-2.015625 0l-1.984375 -3.0l-0.515625 -0.8125l-2.546875 3.8125l-1.984375 0zm10.421875 -11.46875l0 -1.890625l1.640625 0l0 1.890625l-1.640625 0zm0 11.46875l0 -9.671875l1.640625 0l0 9.671875l-1.640625 0zm3.4885864 -2.890625l1.625 -0.25q0.125 0.96875 0.75 1.5q0.625 0.515625 1.75 0.515625q1.125 0 1.671875 -0.453125q0.546875 -0.46875 0.546875 -1.09375q0 -0.546875 -0.484375 -0.875q-0.328125 -0.21875 -1.671875 -0.546875q-1.8125 -0.46875 -2.515625 -0.796875q-0.6875 -0.328125 -1.046875 -0.90625q-0.359375 -0.59375 -0.359375 -1.3125q0 -0.640625 0.296875 -1.1875q0.296875 -0.5625 0.8125 -0.921875q0.375 -0.28125 1.03125 -0.46875q0.671875 -0.203125 1.421875 -0.203125q1.140625 0 2.0 0.328125q0.859375 0.328125 1.265625 0.890625q0.421875 0.5625 0.578125 1.5l-1.609375 0.21875q-0.109375 -0.75 -0.640625 -1.171875q-0.515625 -0.421875 -1.46875 -0.421875q-1.140625 0 -1.625 0.375q-0.46875 0.375 -0.46875 0.875q0 0.3125 0.1875 0.578125q0.203125 0.265625 0.640625 0.4375q0.234375 0.09375 1.4375 0.421875q1.75 0.453125 2.4375 0.75q0.6875 0.296875 1.078125 0.859375q0.390625 0.5625 0.390625 1.40625q0 0.828125 -0.484375 1.546875q-0.46875 0.71875 -1.375 1.125q-0.90625 0.390625 -2.046875 0.390625q-1.875 0 -2.875 -0.78125q-0.984375 -0.78125 -1.25 -2.328125zm10.4375 2.890625l0 -1.875l1.875 0l0 1.875l-1.875 0zm5.1207886 0l0 -8.40625l-1.453125 0l0 -1.265625l1.453125 0l0 -1.03125q0 -0.96875 0.171875 -1.453125q0.234375 -0.640625 0.828125 -1.03125q0.59375 -0.390625 1.671875 -0.390625q0.6875 0 1.53125 0.15625l-0.25 1.4375q-0.5 -0.09375 -0.953125 -0.09375q-0.75 0 -1.0625 0.328125q-0.3125 0.3125 -0.3125 1.1875l0 0.890625l1.890625 0l0 1.265625l-1.890625 0l0 8.40625l-1.625 0zm4.777069 0l0 -9.671875l1.46875 0l0 1.46875q0.5625 -1.03125 1.03125 -1.359375q0.484375 -0.328125 1.0625 -0.328125q0.828125 0 1.6875 0.53125l-0.5625 1.515625q-0.609375 -0.359375 -1.203125 -0.359375q-0.546875 0 -0.96875 0.328125q-0.421875 0.328125 -0.609375 0.890625q-0.28125 0.875 -0.28125 1.921875l0 5.0625l-1.625 0zm4.993927 0.234375l3.875 -13.8125l1.3125 0l-3.859375 13.8125l-1.328125 0z" fill-rule="nonzero"/></g></svg>
