<svg version="1.1" viewBox="0.0 0.0 1280.0 640.0" fill="none" stroke="none" stroke-linecap="square" stroke-miterlimit="10" xmlns:xlink="http://www.w3.org/1999/xlink" xmlns="http://www.w3.org/2000/svg"><clipPath id="p.0"><path d="m0 0l1280.0 0l0 640.0l-1280.0 0l0 -640.0z" clip-rule="nonzero"/></clipPath><g clip-path="url(#p.0)"><path fill="#000000" fill-opacity="0.0" d="m0 0l1280.0 0l0 640.0l-1280.0 0z" fill-rule="evenodd"/><path fill="#000000" fill-opacity="0.0" d="m1274.6923 25.035318l-392.78735 0.81889725" fill-rule="evenodd"/><path stroke="#666666" stroke-width="1.0" stroke-linejoin="round" stroke-linecap="butt" d="m1274.6923 25.035318l-392.78735 0.81889725" fill-rule="evenodd"/><path fill="#000000" fill-opacity="0.0" d="m341.3065 4.846342l540.5984 0l0 42.015747l-540.5984 0z" fill-rule="evenodd"/><path fill="#666666" d="m493.22137 31.76634l0 -13.359375l4.03125 0l2.421875 9.109375l2.390625 -9.109375l4.046875 0l0 13.359375l-2.5 0l0 -10.515625l-2.65625 10.515625l-2.59375 0l-2.640625 -10.515625l0 10.515625l-2.5 0zm14.962677 -4.96875q0 -1.28125 0.625 -2.46875q0.625 -1.203125 1.78125 -1.828125q1.15625 -0.625 2.5781555 -0.625q2.1875 0 3.59375 1.421875q1.40625 1.421875 1.40625 3.609375q0 2.1875 -1.421875 3.640625q-1.421875 1.4375 -3.5625 1.4375q-1.3281555 0 -2.5469055 -0.59375q-1.203125 -0.609375 -1.828125 -1.765625q-0.625 -1.171875 -0.625 -2.828125zm2.625 0.125q0 1.453125 0.671875 2.21875q0.6875305 0.75 1.6875305 0.75q1.0 0 1.671875 -0.75q0.6875 -0.765625 0.6875 -2.234375q0 -1.421875 -0.6875 -2.1875q-0.671875 -0.765625 -1.671875 -0.765625q-1.0 0 -1.6875305 0.765625q-0.671875 0.765625 -0.671875 2.203125zm8.458466 2.078125l2.5625 -0.390625q0.171875 0.75 0.671875 1.140625q0.5 0.390625 1.40625 0.390625q0.984375 0 1.484375 -0.375q0.34375 -0.25 0.34375 -0.671875q0 -0.296875 -0.1875 -0.484375q-0.1875 -0.1875 -0.859375 -0.34375q-3.09375 -0.6875 -3.921875 -1.25q-1.140625 -0.78125 -1.140625 -2.171875q0 -1.265625 0.984375 -2.109375q1.0 -0.859375 3.078125 -0.859375q1.984375 0 2.953125 0.65625q0.96875 0.640625 1.328125 1.90625l-2.40625 0.4375q-0.15625 -0.5625 -0.59375 -0.859375q-0.421875 -0.296875 -1.234375 -0.296875q-1.0 0 -1.4375 0.28125q-0.296875 0.203125 -0.296875 0.515625q0 0.265625 0.25 0.46875q0.34375 0.25 2.390625 0.71875q2.046875 0.453125 2.859375 1.140625q0.796875 0.671875 0.796875 1.890625q0 1.34375 -1.109375 2.296875q-1.109375 0.953125 -3.28125 0.953125q-1.984375 0 -3.140625 -0.796875q-1.140625 -0.8125 -1.5 -2.1875zm15.719482 -6.90625l0 2.03125l-1.75 0l0 3.90625q0 1.1875 0.046875 1.390625q0.046875 0.1875 0.21875 0.3125q0.1875 0.125 0.4375 0.125q0.359375 0 1.03125 -0.25l0.21875 2.0q-0.890625 0.375 -2.015625 0.375q-0.703125 0 -1.265625 -0.234375q-0.546875 -0.234375 -0.8125 -0.59375q-0.25 -0.375 -0.34375 -1.0q-0.09375 -0.453125 -0.09375 -1.8125l0 -4.21875l-1.171875 0l0 -2.03125l1.171875 0l0 -1.921875l2.578125 -1.5l0 3.421875l1.75 0zm13.317871 9.671875l0 -1.453125q-0.53125 0.78125 -1.390625 1.234375q-0.859375 0.4375 -1.8125 0.4375q-0.96875 0 -1.75 -0.421875q-0.765625 -0.4375 -1.125 -1.203125q-0.34375 -0.78125 -0.34375 -2.140625l0 -6.125l2.5625 0l0 4.4375q0 2.046875 0.140625 2.515625q0.140625 0.453125 0.515625 0.71875q0.375 0.265625 0.953125 0.265625q0.65625 0 1.171875 -0.359375q0.515625 -0.359375 0.703125 -0.890625q0.203125 -0.53125 0.203125 -2.609375l0 -4.078125l2.546875 0l0 9.671875l-2.375 0zm4.130371 -2.765625l2.5625 -0.390625q0.171875 0.75 0.671875 1.140625q0.5 0.390625 1.40625 0.390625q0.984375 0 1.484375 -0.375q0.34375 -0.25 0.34375 -0.671875q0 -0.296875 -0.1875 -0.484375q-0.1875 -0.1875 -0.859375 -0.34375q-3.09375 -0.6875 -3.921875 -1.25q-1.140625 -0.78125 -1.140625 -2.171875q0 -1.265625 0.984375 -2.109375q1.0 -0.859375 3.078125 -0.859375q1.984375 0 2.953125 0.65625q0.96875 0.640625 1.328125 1.90625l-2.40625 0.4375q-0.15625 -0.5625 -0.59375 -0.859375q-0.421875 -0.296875 -1.234375 -0.296875q-1.0 0 -1.4375 0.28125q-0.296875 0.203125 -0.296875 0.515625q0 0.265625 0.25 0.46875q0.34375 0.25 2.390625 0.71875q2.046875 0.453125 2.859375 1.140625q0.796875 0.671875 0.796875 1.890625q0 1.34375 -1.109375 2.296875q-1.109375 0.953125 -3.28125 0.953125q-1.984375 0 -3.140625 -0.796875q-1.140625 -0.8125 -1.5 -2.1875zm16.875671 -0.3125l2.546875 0.421875q-0.484375 1.40625 -1.546875 2.140625q-1.0625 0.734375 -2.65625 0.734375q-2.515625 0 -3.734375 -1.65625q-0.953125 -1.3125 -0.953125 -3.328125q0 -2.40625 1.25 -3.765625q1.265625 -1.359375 3.1875 -1.359375q2.15625 0 3.40625 1.421875q1.25 1.421875 1.1875 4.375l-6.40625 0q0.03125 1.140625 0.609375 1.78125q0.59375 0.625 1.484375 0.625q0.59375 0 1.0 -0.328125q0.421875 -0.328125 0.625 -1.0625zm0.15625 -2.59375q-0.03125 -1.109375 -0.578125 -1.6875q-0.546875 -0.578125 -1.328125 -0.578125q-0.84375 0 -1.390625 0.609375q-0.546875 0.609375 -0.53125 1.65625l3.828125 0zm3.5007324 -4.0l1.421875 0l0 -0.734375q0 -1.21875 0.25 -1.8125q0.265625 -0.609375 0.953125 -0.984375q0.703125 -0.375 1.78125 -0.375q1.09375 0 2.140625 0.328125l-0.359375 1.78125q-0.609375 -0.140625 -1.171875 -0.140625q-0.546875 0 -0.796875 0.265625q-0.234375 0.25 -0.234375 0.984375l0 0.6875l1.90625 0l0 2.015625l-1.90625 0l0 7.65625l-2.5625 0l0 -7.65625l-1.421875 0l0 -2.015625zm13.6970825 9.671875l0 -1.453125q-0.53125 0.78125 -1.390625 1.234375q-0.859375 0.4375 -1.8125 0.4375q-0.96875 0 -1.75 -0.421875q-0.765625 -0.4375 -1.125 -1.203125q-0.34375 -0.78125 -0.34375 -2.140625l0 -6.125l2.5625 0l0 4.4375q0 2.046875 0.140625 2.515625q0.140625 0.453125 0.515625 0.71875q0.375 0.265625 0.953125 0.265625q0.65625 0 1.171875 -0.359375q0.515625 -0.359375 0.703125 -0.890625q0.203125 -0.53125 0.203125 -2.609375l0 -4.078125l2.546875 0l0 9.671875l-2.375 0zm5.03656 0l0 -13.359375l2.5625 0l0 13.359375l-2.5625 0zm12.163513 0l-3.0625 -9.671875l2.484375 0l1.8125 6.34375l1.671875 -6.34375l2.46875 0l1.609375 6.34375l1.859375 -6.34375l2.515625 0l-3.109375 9.671875l-2.453125 0l-1.671875 -6.21875l-1.640625 6.21875l-2.484375 0zm15.261414 -13.359375l0 4.921875q1.234375 -1.453125 2.953125 -1.453125q0.890625 0 1.59375 0.328125q0.71875 0.328125 1.078125 0.84375q0.359375 0.5 0.484375 1.125q0.140625 0.609375 0.140625 1.921875l0 5.671875l-2.5625 0l0 -5.109375q0 -1.515625 -0.15625 -1.921875q-0.140625 -0.421875 -0.515625 -0.65625q-0.359375 -0.25 -0.90625 -0.25q-0.640625 0 -1.140625 0.3125q-0.5 0.3125 -0.734375 0.9375q-0.234375 0.625 -0.234375 1.84375l0 4.84375l-2.5625 0l0 -13.359375l2.5625 0zm14.442871 10.28125l2.546875 0.421875q-0.484375 1.40625 -1.546875 2.140625q-1.0625 0.734375 -2.65625 0.734375q-2.515625 0 -3.734375 -1.65625q-0.953125 -1.3125 -0.953125 -3.328125q0 -2.40625 1.25 -3.765625q1.265625 -1.359375 3.1875 -1.359375q2.15625 0 3.40625 1.421875q1.25 1.421875 1.1875 4.375l-6.40625 0q0.03125 1.140625 0.609375 1.78125q0.59375 0.625 1.484375 0.625q0.59375 0 1.0 -0.328125q0.421875 -0.328125 0.625 -1.0625zm0.15625 -2.59375q-0.03125 -1.109375 -0.578125 -1.6875q-0.546875 -0.578125 -1.328125 -0.578125q-0.84375 0 -1.390625 0.609375q-0.546875 0.609375 -0.53125 1.65625l3.828125 0zm13.422607 5.671875l-2.5625 0l0 -4.9375q0 -1.5625 -0.171875 -2.015625q-0.15625 -0.46875 -0.53125 -0.71875q-0.359375 -0.265625 -0.875 -0.265625q-0.671875 0 -1.203125 0.375q-0.53125 0.359375 -0.734375 0.96875q-0.1875 0.59375 -0.1875 2.21875l0 4.375l-2.546875 0l0 -9.671875l2.375 0l0 1.421875q1.265625 -1.640625 3.1875 -1.640625q0.84375 0 1.546875 0.3125q0.703125 0.296875 1.0625 0.78125q0.359375 0.46875 0.5 1.078125q0.140625 0.59375 0.140625 1.703125l0 6.015625zm6.8761597 -2.765625l2.5625 -0.390625q0.171875 0.75 0.671875 1.140625q0.5 0.390625 1.40625 0.390625q0.984375 0 1.484375 -0.375q0.34375 -0.25 0.34375 -0.671875q0 -0.296875 -0.1875 -0.484375q-0.1875 -0.1875 -0.859375 -0.34375q-3.09375 -0.6875 -3.921875 -1.25q-1.140625 -0.78125 -1.140625 -2.171875q0 -1.265625 0.984375 -2.109375q1.0 -0.859375 3.078125 -0.859375q1.984375 0 2.953125 0.65625q0.96875 0.640625 1.328125 1.90625l-2.40625 0.4375q-0.15625 -0.5625 -0.59375 -0.859375q-0.421875 -0.296875 -1.234375 -0.296875q-1.0 0 -1.4375 0.28125q-0.296875 0.203125 -0.296875 0.515625q0 0.265625 0.25 0.46875q0.34375 0.25 2.390625 0.71875q2.046875 0.453125 2.859375 1.140625q0.796875 0.671875 0.796875 1.890625q0 1.34375 -1.109375 2.296875q-1.109375 0.953125 -3.28125 0.953125q-1.984375 0 -3.140625 -0.796875q-1.140625 -0.8125 -1.5 -2.1875zm15.719482 -6.90625l0 2.03125l-1.75 0l0 3.90625q0 1.1875 0.046875 1.390625q0.046875 0.1875 0.21875 0.3125q0.1875 0.125 0.4375 0.125q0.359375 0 1.03125 -0.25l0.21875 2.0q-0.890625 0.375 -2.015625 0.375q-0.703125 0 -1.265625 -0.234375q-0.546875 -0.234375 -0.8125 -0.59375q-0.25 -0.375 -0.34375 -1.0q-0.09375 -0.453125 -0.09375 -1.8125l0 -4.21875l-1.171875 0l0 -2.03125l1.171875 0l0 -1.921875l2.578125 -1.5l0 3.421875l1.75 0zm8.1345215 9.671875l0 -1.453125q-0.53125 0.78125 -1.390625 1.234375q-0.859375 0.4375 -1.8125 0.4375q-0.96875 0 -1.75 -0.421875q-0.765625 -0.4375 -1.125 -1.203125q-0.34375 -0.78125 -0.34375 -2.140625l0 -6.125l2.5625 0l0 4.4375q0 2.046875 0.140625 2.515625q0.140625 0.453125 0.515625 0.71875q0.375 0.265625 0.953125 0.265625q0.65625 0 1.171875 -0.359375q0.515625 -0.359375 0.703125 -0.890625q0.203125 -0.53125 0.203125 -2.609375l0 -4.078125l2.546875 0l0 9.671875l-2.375 0zm13.911621 0l-2.390625 0l0 -1.421875q-0.59375 0.828125 -1.40625 1.234375q-0.796875 0.40625 -1.609375 0.40625q-1.671875 0 -2.859375 -1.34375q-1.1875 -1.34375 -1.1875 -3.75q0 -2.453125 1.15625 -3.734375q1.15625 -1.28125 2.921875 -1.28125q1.625 0 2.8125 1.34375l0 -4.8125l2.5625 0l0 13.359375zm-6.84375 -5.046875q0 1.546875 0.4375 2.234375q0.609375 1.015625 1.71875 1.015625q0.890625 0 1.5 -0.75q0.625 -0.765625 0.625 -2.25q0 -1.671875 -0.609375 -2.40625q-0.59375 -0.734375 -1.53125 -0.734375q-0.90625 0 -1.53125 0.734375q-0.609375 0.71875 -0.609375 2.15625zm8.145996 -4.625l2.71875 0l2.328125 6.859375l2.25 -6.859375l2.65625 0l-3.421875 9.3125l-0.609375 1.6874981q-0.328125 0.84375 -0.640625 1.28125q-0.3125 0.453125 -0.703125 0.71875q-0.390625 0.28125 -0.96875 0.4375q-0.578125 0.15625 -1.3125 0.15625q-0.734375 0 -1.453125 -0.15625l-0.21875 -2.0q0.59375 0.125 1.078125 0.125q0.890625 0 1.3125 -0.53125q0.4375 -0.515625 0.671875 -1.3281231l-3.6875 -9.703125zm11.594421 -1.3125l0 -2.375l2.5625 0l0 2.375l-2.5625 0zm0 10.984375l0 -9.671875l2.5625 0l0 9.671875l-2.5625 0zm13.980225 0l-2.5625 0l0 -4.9375q0 -1.5625 -0.171875 -2.015625q-0.15625 -0.46875 -0.53125 -0.71875q-0.359375 -0.265625 -0.875 -0.265625q-0.671875 0 -1.203125 0.375q-0.53125 0.359375 -0.734375 0.96875q-0.1875 0.59375 -0.1875 2.21875l0 4.375l-2.546875 0l0 -9.671875l2.375 0l0 1.421875q1.265625 -1.640625 3.1875 -1.640625q0.84375 0 1.546875 0.3125q0.703125 0.296875 1.0625 0.78125q0.359375 0.46875 0.5 1.078125q0.140625 0.59375 0.140625 1.703125l0 6.015625zm2.364685 0.6406231l2.921875 0.359375q0.0625 0.5 0.328125 0.6875q0.375 0.28125 1.15625 0.28125q1.0 0 1.5 -0.296875q0.328125 -0.203125 0.515625 -0.65625q0.109375 -0.3125 0.109375 -1.1718731l0 -1.40625q-1.140625 1.5625 -2.890625 1.5625q-1.953125 0 -3.09375 -1.65625q-0.890625 -1.296875 -0.890625 -3.234375q0 -2.4375 1.171875 -3.71875q1.171875 -1.28125 2.90625 -1.28125q1.796875 0 2.96875 1.578125l0 -1.359375l2.390625 0l0 8.671875q0 1.7187481 -0.28125 2.562498q-0.28125 0.84375 -0.796875 1.328125q-0.5 0.484375 -1.359375 0.75q-0.84375 0.28125 -2.15625 0.28125q-2.453125 0 -3.484375 -0.84375q-1.03125 -0.84375 -1.03125 -2.125q0 -0.140625 0.015625 -0.3125zm2.28125 -5.671873q0 1.53125 0.59375 2.25q0.59375 0.71875 1.46875 0.71875q0.9375 0 1.578125 -0.734375q0.65625 -0.734375 0.65625 -2.171875q0 -1.515625 -0.625 -2.234375q-0.609375 -0.734375 -1.5625 -0.734375q-0.921875 0 -1.515625 0.71875q-0.59375 0.71875 -0.59375 2.1875z" fill-rule="nonzero"/><path fill="#000000" fill-opacity="0.0" d="m341.3065 25.844688l-336.0 -1.2283459" fill-rule="evenodd"/><path stroke="#666666" stroke-width="1.0" stroke-linejoin="round" stroke-linecap="butt" d="m341.3065 25.844688l-336.0 -1.2283459" fill-rule="evenodd"/><path fill="#000000" fill-opacity="0.0" d="m1223.3225 639.9677l-2.0787354 -195.59055" fill-rule="evenodd"/><path stroke="#666666" stroke-width="1.0" stroke-linejoin="round" stroke-linecap="butt" d="m1223.3225 639.9677l-2.0787354 -195.59055" fill-rule="evenodd"/><path fill="#000000" fill-opacity="0.0" d="m1242.1886 113.66851l0 330.67715l-41.88965 0.06298828l0 -330.67715z" fill-rule="evenodd"/><path fill="#666666" d="m1215.2687 181.2986l11.09375 -0.016693115l0 -3.953125l2.265625 -0.00340271l0 10.609375l-2.265625 0.00340271l0 -3.953125l-11.09375 0.016693115l0 -2.703125zm13.359375 10.907135l-4.921875 0.0074005127q1.453125 1.232193 1.453125 2.950943q0 0.890625 -0.328125 1.5942383q-0.328125 0.71925354 -0.84375 1.0793915q-0.5 0.36013794 -1.125 0.48606873q-0.609375 0.14154053 -1.921875 0.14352417l-5.671875 0.008529663l0 -2.5625l5.109375 -0.0076904297q1.515625 -0.0022735596 1.921875 -0.15913391q0.421875 -0.14126587 0.65625 -0.5166168q0.25 -0.35975647 0.25 -0.90663147q0 -0.640625 -0.3125 -1.140152q-0.3125 -0.49952698 -0.9375 -0.73295593q-0.625 -0.23344421 -1.84375 -0.23161316l-4.84375 0.007293701l0 -2.5625l13.359375 -0.020095825l0 2.5625zm-10.28125 14.458313l-0.421875 2.5475159q-1.40625 -0.48225403 -2.140625 -1.5436554q-0.734375 -1.0614014 -0.734375 -2.6551514q0 -2.515625 1.65625 -3.7368622q1.3125 -0.9550934 3.328125 -0.9581299q2.40625 -0.003616333 3.765625 1.244339q1.359375 1.2635803 1.359375 3.1854553q0 2.15625 -1.421875 3.4083862q-1.421875 1.2521362 -4.375 1.1940765l0 -6.40625q-1.140625 0.032974243 -1.78125 0.61206055q-0.625 0.5946808 -0.625 1.4853058q0 0.59375 0.328125 0.9995117q0.328125 0.42138672 1.0625 0.6233978zm2.59375 0.15235901q1.109375 -0.032928467 1.6875 -0.5806732q0.578125 -0.54774475 0.578125 -1.3289948q0 -0.84375 -0.609375 -1.3896942q-0.609375 -0.5459595 -1.65625 -0.5287628l0 3.828125zm-0.703125 4.03302q1.28125 -0.0019226074 2.46875 0.6212921q1.203125 0.6231842 1.828125 1.7785034q0.625 1.155304 0.625 2.577179q0 2.1875 -1.421875 3.5958862q-1.421875 1.4083862 -3.609375 1.4116821q-2.1875 0.0032806396 -3.640625 -1.4163971q-1.4375 -1.4197235 -1.4375 -3.5603485q0 -1.328125 0.59375 -2.54776q0.609375 -1.2040405 1.765625 -1.83078q1.171875 -0.62677 2.828125 -0.6292572zm-0.125 2.625183q-1.453125 0.0021972656 -2.21875 0.6752167q-0.75 0.68862915 -0.75 1.6886292q0 1.0 0.75 1.6707458q0.765625 0.6863556 2.234375 0.68414307q1.421875 -0.0021362305 2.1875 -0.6907959q0.765625 -0.6730194 0.765625 -1.6730194q0 -1.0 -0.765625 -1.6863556q-0.765625 -0.67071533 -2.203125 -0.66856384zm-4.84375 11.82515l0 -2.5625l9.671875 -0.014541626l0 2.375l-1.375 0.0020599365q0.984375 0.6078949 1.28125 1.0918274q0.3125 0.48390198 0.3125 1.108902q0 0.875 -0.484375 1.6882324l-2.234375 -0.79351807q0.421875 -0.64126587 0.421875 -1.2037659q0 -0.53125 -0.296875 -0.90579224q-0.296875 -0.3745575 -1.078125 -0.59213257q-0.765625 -0.20198059 -3.234375 -0.19825745l-2.984375 0.004486084zm3.078125 10.3962555l-0.421875 2.5475159q-1.40625 -0.48225403 -2.140625 -1.5436554q-0.734375 -1.0614014 -0.734375 -2.6551514q0 -2.515625 1.65625 -3.7368622q1.3125 -0.9550934 3.328125 -0.9581299q2.40625 -0.003616333 3.765625 1.244339q1.359375 1.2635803 1.359375 3.1854553q0 2.15625 -1.421875 3.4083862q-1.421875 1.2521362 -4.375 1.1940765l0 -6.40625q-1.140625 0.032974243 -1.78125 0.61206055q-0.625 0.5946808 -0.625 1.4853058q0 0.59375 0.328125 0.9995117q0.328125 0.42138672 1.0625 0.6233978zm2.59375 0.15235901q1.109375 -0.032928467 1.6875 -0.5806732q0.578125 -0.54774475 0.578125 -1.3289948q0 -0.84375 -0.609375 -1.3896942q-0.609375 -0.5459595 -1.65625 -0.5287628l0 3.828125zm4.0 9.057205l-2.03125 0.0030517578l0 -1.75l-3.90625 0.005874634q-1.1875 0.0017852783 -1.390625 0.048965454q-0.1875 0.04714966 -0.3125 0.21922302q-0.125 0.1876831 -0.125 0.4376831q0 0.359375 0.25 1.0308685l-2.0 0.22175598q-0.375 -0.8900604 -0.375 -2.0150604q0 -0.703125 0.234375 -1.265976q0.234375 -0.54722595 0.59375 -0.813385q0.375 -0.25056458 1.0 -0.34526062q0.453125 -0.094436646 1.8125 -0.09648132l4.21875 -0.0063323975l0 -1.171875l2.03125 -0.0030517578l0 1.171875l1.921875 -0.00289917l1.5 2.5758667l-3.421875 0.0051574707l0 1.75zm1.3125 1.7731934l2.375 -0.0035705566l0 2.5625l-2.375 0.0035705566l0 -2.5625zm-10.984375 0.016525269l9.671875 -0.014541626l0 2.5625l-9.671875 0.014541626l0 -2.5625zm6.8125 13.61055l-0.453125 -2.530548q0.75 -0.12612915 1.125 -0.579834q0.390625 -0.45370483 0.390625 -1.1724548q0 -0.953125 -0.65625 -1.5302734q-0.65625 -0.5615082 -2.203125 -0.55918884q-1.734375 0.002609253 -2.4375 0.58180237q-0.703125 0.57917786 -0.703125 1.5479126q0 0.734375 0.40625 1.2025146q0.421875 0.46813965 1.421875 0.65411377l-0.421875 2.5162659q-1.734375 -0.3880005 -2.625 -1.5116577q-0.875 -1.1080627 -0.875 -2.967453q0 -2.125 1.328125 -3.392624q1.34375 -1.2520142 3.71875 -1.2555847q2.390625 -0.0036010742 3.71875 1.260025q1.34375 1.2636108 1.34375 3.4198608q0 1.7656097 -0.765625 2.7980194q-0.75 1.0480042 -2.3125 1.519104zm-0.09375 3.8446045l0.421875 -2.3287354q1.40625 0.40411377 2.078125 1.3562317q0.671875 0.9521179 0.671875 2.842743q0 1.703125 -0.40625 2.5474854q-0.40625 0.84436035 -1.03125 1.1734314q-0.625 0.34469604 -2.28125 0.34716797l-3.0 -0.011108398q-1.265625 0.0018920898 -1.875 0.11218262q-0.609375 0.12591553 -1.296875 0.47070312l0 -2.53125q0.25 -0.10974121 0.75 -0.25112915q0.234375 -0.06283569 0.3125 -0.09420776q-0.640625 -0.65527344 -0.96875 -1.4047852q-0.3125 -0.73391724 -0.3125 -1.5932922q0 -1.484375 0.8125 -2.3449707q0.8125 -0.8605957 2.046875 -0.8624573q0.828125 -0.0012512207 1.46875 0.38842773q0.640625 0.38964844 0.96875 1.0922852q0.34375 0.7026062 0.609375 2.0303345q0.328125 1.7963867 0.625 2.483429l0.25 -3.6621094E-4q0.75 -0.0011291504 1.0625 -0.3609619q0.3125 -0.35986328 0.3125 -1.3754883q0 -0.6875 -0.28125 -1.0776978q-0.265625 -0.37460327 -0.9375 -0.6079712zm-2.078125 3.4250183q-0.15625 -0.48416138 -0.390625 -1.5619202q-0.21875 -1.0621643 -0.4375 -1.3899841q-0.359375 -0.49945068 -0.90625 -0.4986267q-0.53125 7.9345703E-4 -0.9375 0.4076538q-0.390625 0.40686035 -0.390625 1.0162354q0 0.703125 0.46875 1.3274231q0.34375 0.4682312 0.84375 0.60809326q0.328125 0.09326172 1.25 0.09185791l0.5 -7.324219E-4zm-4.640625 5.0545654l13.359375 -0.020080566l0 2.5625l-13.359375 0.020080566l0 -2.5625zm0 10.413483l13.359375 -0.020080566l0 2.703125l-5.9375 0.008911133l5.9375 5.428589l0 3.625l-5.203125 -5.0078125l-8.15625 5.309143l0 -3.484375l6.265625 -3.681305l-2.234375 -2.184143l-4.03125 0.006072998l0 -2.703125zm0 22.22293l0 -2.5625l4.9375 -0.0074157715q1.5625 -0.0023498535 2.015625 -0.17489624q0.46875 -0.1569519 0.71875 -0.53234863q0.265625 -0.35977173 0.265625 -0.8753967q0 -0.671875 -0.375 -1.2025452q-0.359375 -0.5307312 -0.96875 -0.7329407q-0.59375 -0.18658447 -2.21875 -0.18414307l-4.375 0.0065612793l0 -2.546875l9.671875 -0.014526367l0 2.375l-1.421875 0.0021362305q1.640625 1.2631531 1.640625 3.185028q0 0.84375 -0.3125 1.5473328q-0.296875 0.70358276 -0.78125 1.0636902q-0.46875 0.3600769 -1.078125 0.50161743q-0.59375 0.14151001 -1.703125 0.14318848l-6.015625 0.009033203zm4.96875 1.9978943q1.28125 -0.0019226074 2.46875 0.62127686q1.203125 0.62319946 1.828125 1.7785034q0.625 1.155304 0.625 2.577179q0 2.1875 -1.421875 3.5959167q-1.421875 1.4083862 -3.609375 1.4116516q-2.1875 0.0032958984 -3.640625 -1.4163818q-1.4375 -1.4197083 -1.4375 -3.5603333q0 -1.328125 0.59375 -2.5477905q0.609375 -1.2040405 1.765625 -1.83078q1.171875 -0.6267395 2.828125 -0.62924194zm-0.125 2.625183q-1.453125 0.0021972656 -2.21875 0.67523193q-0.75 0.68859863 -0.75 1.6885986q0 1.0 0.75 1.6707764q0.765625 0.68634033 2.234375 0.68411255q1.421875 -0.0021362305 2.1875 -0.6907654q0.765625 -0.67303467 0.765625 -1.6730347q0 -1.0 -0.765625 -1.6863403q-0.765625 -0.67074585 -2.203125 -0.6685791zm-4.84375 11.168884l9.671875 -3.0770264l0 2.484375l-6.34375 1.8220215l6.34375 1.6623535l0 2.46875l-6.34375 1.6188965l6.34375 1.8498535l0 2.515625l-9.671875 -3.0948486l0 -2.453125l6.21875 -1.6812134l-6.21875 -1.6312866l0 -2.484375zm0 12.714569l13.359375 -0.020080566l0 2.5625l-13.359375 0.020080566l0 -2.5625zm3.078125 10.77243l-0.421875 2.5474854q-1.40625 -0.48223877 -2.140625 -1.5436401q-0.734375 -1.0614014 -0.734375 -2.6551514q0 -2.515625 1.65625 -3.736847q1.3125 -0.95510864 3.328125 -0.9581299q2.40625 -0.0036315918 3.765625 1.2443237q1.359375 1.2635803 1.359375 3.1854553q0 2.15625 -1.421875 3.4083862q-1.421875 1.2521362 -4.375 1.1940918l0 -6.40625q-1.140625 0.032958984 -1.78125 0.61203q-0.625 0.59469604 -0.625 1.485321q0 0.59375 0.328125 0.9995117q0.328125 0.42138672 1.0625 0.6234131zm2.59375 0.15234375q1.109375 -0.032928467 1.6875 -0.58065796q0.578125 -0.54776 0.578125 -1.32901q0 -0.84375 -0.609375 -1.3897095q-0.609375 -0.5459595 -1.65625 -0.52874756l0 3.828125zm-5.671875 13.509247l0 -2.390625l1.421875 -0.0021362305q-0.828125 -0.5924988 -1.234375 -1.4043884q-0.40625 -0.79626465 -0.40625 -1.6087646q0 -1.671875 1.34375 -2.8614197q1.34375 -1.1895142 3.75 -1.1931152q2.453125 -0.003692627 3.734375 1.1506348q1.28125 1.1542969 1.28125 2.9199219q0 1.625 -1.34375 2.8145447l4.8125 -0.007232666l0 2.5625l-13.359375 0.020080566zm5.046875 -6.851349q-1.546875 0.002319336 -2.234375 0.44085693q-1.015625 0.6109009 -1.015625 1.7202759q0 0.890625 0.75 1.4988708q0.765625 0.62387085 2.25 0.62161255q1.671875 -0.0025024414 2.40625 -0.6129761q0.734375 -0.59484863 0.734375 -1.5323486q0 -0.90625 -0.734375 -1.5301514q-0.71875 -0.6083069 -2.15625 -0.60614014zm-5.6875 9.138916l-0.359375 2.9224243q-0.5 0.06323242 -0.6875 0.3291626q-0.28125 0.37539673 -0.28125 1.1566467q0 1.0 0.296875 1.4995728q0.203125 0.32781982 0.65625 0.5146179q0.3125 0.10891724 1.171875 0.1076355l1.40625 -0.0021362305q-1.5625 -1.1382751 -1.5625 -2.8882751q0 -1.953125 1.65625 -3.096222q1.296875 -0.8925781 3.234375 -0.8955078q2.4375 -0.0036621094 3.71875 1.1662903q1.28125 1.1699524 1.28125 2.9043274q0 1.796875 -1.578125 2.9711304l1.359375 -0.0020446777l0 2.390625l-8.671875 0.013031006q-1.71875 0.0025939941 -2.5625 -0.2774048q-0.84375 -0.27996826 -1.328125 -0.79486084q-0.484375 -0.49926758 -0.75 -1.3582458q-0.28125 -0.84332275 -0.28125 -2.1558228q0 -2.453125 0.84375 -3.4856567q0.84375 -1.0325317 2.125 -1.0344543q0.140625 -2.1362305E-4 0.3125 0.015167236zm5.671875 2.272705q-1.53125 0.002319336 -2.25 0.59713745q-0.71875 0.59484863 -0.71875 1.4698486q0 0.9375 0.734375 1.5770264q0.734375 0.65512085 2.171875 0.6529846q1.515625 -0.0022888184 2.234375 -0.62838745q0.734375 -0.61047363 0.734375 -1.5635986q0 -0.921875 -0.71875 -1.5145264q-0.71875 -0.5926819 -2.1875 -0.5904846zm-1.953125 14.945831l-0.421875 2.5474854q-1.40625 -0.48223877 -2.140625 -1.5436401q-0.734375 -1.0614014 -0.734375 -2.6551514q0 -2.515625 1.65625 -3.736847q1.3125 -0.95510864 3.328125 -0.9581299q2.40625 -0.0036315918 3.765625 1.2443237q1.359375 1.2635803 1.359375 3.1854553q0 2.15625 -1.421875 3.4083862q-1.421875 1.2521362 -4.375 1.1940918l0 -6.40625q-1.140625 0.032958984 -1.78125 0.61203q-0.625 0.59469604 -0.625 1.485321q0 0.59375 0.328125 0.9995117q0.328125 0.42138672 1.0625 0.6234131zm2.59375 0.15234375q1.109375 -0.032928467 1.6875 -0.58065796q0.578125 -0.54776 0.578125 -1.32901q0 -0.84375 -0.609375 -1.3897095q-0.609375 -0.5459595 -1.65625 -0.52874756l0 3.828125z" fill-rule="nonzero"/><path fill="#000000" fill-opacity="0.0" d="m1221.8748 113.66959l-1.2597656 -113.6378" fill-rule="evenodd"/><path stroke="#666666" stroke-width="1.0" stroke-linejoin="round" stroke-linecap="butt" d="m1221.8748 113.66959l-1.2597656 -113.6378" fill-rule="evenodd"/><path fill="#000000" fill-opacity="0.0" d="m278.28262 309.85785l658.48816 0l0 80.787384l-658.48816 0z" fill-rule="evenodd"/><path fill="#3c78d8" d="m436.9187 367.49783l0 -36.265625l12.5 0q4.21875 0 6.453125 0.53125q3.109375 0.703125 5.3125 2.59375q2.875 2.421875 4.296875 6.203125q1.421875 3.765625 1.421875 8.609375q0 4.125 -0.96875 7.328125q-0.96875 3.1875 -2.484375 5.28125q-1.5 2.078125 -3.296875 3.28125q-1.78125 1.203125 -4.328125 1.828125q-2.53125 0.609375 -5.8125 0.609375l-13.09375 0zm4.796875 -4.28125l7.75 0q3.578125 0 5.609375 -0.65625q2.046875 -0.671875 3.265625 -1.890625q1.703125 -1.703125 2.65625 -4.578125q0.953125 -2.890625 0.953125 -7.0q0 -5.6875 -1.875 -8.734375q-1.859375 -3.0625 -4.53125 -4.09375q-1.921875 -0.75 -6.203125 -0.75l-7.625 0l0 27.703125zm32.59796 4.28125l0 -36.265625l4.796875 0l0 36.265625l-4.796875 0zm11.636414 -11.65625l4.515625 -0.390625q0.328125 2.71875 1.5 4.46875q1.171875 1.734375 3.640625 2.8125q2.484375 1.078125 5.578125 1.078125q2.734375 0 4.84375 -0.8125q2.109375 -0.8125 3.125 -2.234375q1.03125 -1.421875 1.03125 -3.109375q0 -1.703125 -1.0 -2.96875q-0.984375 -1.28125 -3.25 -2.15625q-1.46875 -0.5625 -6.46875 -1.765625q-4.984375 -1.203125 -6.984375 -2.265625q-2.609375 -1.359375 -3.890625 -3.375q-1.265625 -2.015625 -1.265625 -4.515625q0 -2.734375 1.5625 -5.125q1.5625 -2.390625 4.546875 -3.625q3.0 -1.234375 6.65625 -1.234375q4.03125 0 7.109375 1.296875q3.078125 1.296875 4.734375 3.828125q1.65625 2.515625 1.78125 5.703125l-4.59375 0.34375q-0.375 -3.4375 -2.515625 -5.1875q-2.140625 -1.765625 -6.3125 -1.765625q-4.359375 0 -6.359375 1.609375q-1.984375 1.59375 -1.984375 3.84375q0 1.953125 1.421875 3.203125q1.375 1.265625 7.21875 2.59375q5.859375 1.328125 8.03125 2.3125q3.171875 1.453125 4.671875 3.703125q1.515625 2.234375 1.515625 5.15625q0 2.890625 -1.65625 5.453125q-1.65625 2.5625 -4.765625 3.984375q-3.09375 1.421875 -6.984375 1.421875q-4.921875 0 -8.25 -1.4375q-3.328125 -1.4375 -5.21875 -4.3125q-1.890625 -2.890625 -1.984375 -6.53125zm61.287292 -1.0625l4.796875 1.21875q-1.515625 5.90625 -5.4375 9.015625q-3.90625 3.109375 -9.578125 3.109375q-5.859314 0 -9.531189 -2.390625q-3.671875 -2.390625 -5.59375 -6.90625q-1.921875 -4.53125 -1.921875 -9.734375q0 -5.65625 2.15625 -9.875q2.171875 -4.21875 6.171875 -6.40625q4.0 -2.1875 8.796814 -2.1875q5.4375 0 9.140625 2.765625q3.71875 2.765625 5.171875 7.796875l-4.71875 1.109375q-1.265625 -3.953125 -3.671875 -5.75q-2.390625 -1.8125 -6.015625 -1.8125q-4.187439 0 -6.999939 2.0q-2.796875 2.0 -3.9375 5.375q-1.140625 3.375 -1.140625 6.96875q0 4.625 1.34375 8.078125q1.359375 3.4375 4.203125 5.15625q2.84375 1.703125 6.156189 1.703125q4.03125 0 6.828125 -2.328125q2.796875 -2.328125 3.78125 -6.90625zm34.50421 -23.546875l4.796875 0l0 20.953125q0 5.46875 -1.234375 8.6875q-1.234375 3.21875 -4.46875 5.234375q-3.21875 2.015625 -8.46875 2.015625q-5.09375 0 -8.34375 -1.75q-3.234375 -1.765625 -4.625 -5.09375q-1.375 -3.328125 -1.375 -9.09375l0 -20.953125l4.796875 0l0 20.9375q0 4.71875 0.875 6.953125q0.875 2.234375 3.015625 3.453125q2.140625 1.21875 5.234375 1.21875q5.296875 0 7.546875 -2.40625q2.25 -2.40625 2.25 -9.21875l0 -20.9375zm11.160461 24.609375l4.515625 -0.390625q0.328125 2.71875 1.5 4.46875q1.171875 1.734375 3.640625 2.8125q2.484375 1.078125 5.578125 1.078125q2.734375 0 4.84375 -0.8125q2.109375 -0.8125 3.125 -2.234375q1.03125 -1.421875 1.03125 -3.109375q0 -1.703125 -1.0 -2.96875q-0.984375 -1.28125 -3.25 -2.15625q-1.46875 -0.5625 -6.46875 -1.765625q-4.984375 -1.203125 -6.984375 -2.265625q-2.609375 -1.359375 -3.890625 -3.375q-1.265625 -2.015625 -1.265625 -4.515625q0 -2.734375 1.5625 -5.125q1.5625 -2.390625 4.546875 -3.625q3.0 -1.234375 6.65625 -1.234375q4.03125 0 7.109375 1.296875q3.078125 1.296875 4.734375 3.828125q1.65625 2.515625 1.78125 5.703125l-4.59375 0.34375q-0.375 -3.4375 -2.515625 -5.1875q-2.140625 -1.765625 -6.3125 -1.765625q-4.359375 0 -6.359375 1.609375q-1.984375 1.59375 -1.984375 3.84375q0 1.953125 1.421875 3.203125q1.375 1.265625 7.21875 2.59375q5.859375 1.328125 8.03125 2.3125q3.171875 1.453125 4.671875 3.703125q1.515625 2.234375 1.515625 5.15625q0 2.890625 -1.65625 5.453125q-1.65625 2.5625 -4.765625 3.984375q-3.09375 1.421875 -6.984375 1.421875q-4.921875 0 -8.25 -1.4375q-3.328125 -1.4375 -5.21875 -4.3125q-1.890625 -2.890625 -1.984375 -6.53125zm33.787292 0l4.515625 -0.390625q0.328125 2.71875 1.5 4.46875q1.171875 1.734375 3.640625 2.8125q2.484375 1.078125 5.578125 1.078125q2.734375 0 4.84375 -0.8125q2.109375 -0.8125 3.125 -2.234375q1.03125 -1.421875 1.03125 -3.109375q0 -1.703125 -1.0 -2.96875q-0.984375 -1.28125 -3.25 -2.15625q-1.46875 -0.5625 -6.46875 -1.765625q-4.984375 -1.203125 -6.984375 -2.265625q-2.609375 -1.359375 -3.890625 -3.375q-1.265625 -2.015625 -1.265625 -4.515625q0 -2.734375 1.5625 -5.125q1.5625 -2.390625 4.546875 -3.625q3.0 -1.234375 6.65625 -1.234375q4.03125 0 7.109375 1.296875q3.078125 1.296875 4.734375 3.828125q1.65625 2.515625 1.78125 5.703125l-4.59375 0.34375q-0.375 -3.4375 -2.515625 -5.1875q-2.140625 -1.765625 -6.3125 -1.765625q-4.359375 0 -6.359375 1.609375q-1.984375 1.59375 -1.984375 3.84375q0 1.953125 1.421875 3.203125q1.375 1.265625 7.21875 2.59375q5.859375 1.328125 8.03125 2.3125q3.171875 1.453125 4.671875 3.703125q1.515625 2.234375 1.515625 5.15625q0 2.890625 -1.65625 5.453125q-1.65625 2.5625 -4.765625 3.984375q-3.09375 1.421875 -6.984375 1.421875q-4.921875 0 -8.25 -1.4375q-3.328125 -1.4375 -5.21875 -4.3125q-1.890625 -2.890625 -1.984375 -6.53125zm36.224854 11.65625l0 -36.265625l4.796875 0l0 36.265625l-4.796875 0zm11.808289 -17.65625q0 -9.03125 4.84375 -14.140625q4.84375 -5.109375 12.515625 -5.109375q5.015625 0 9.046875 2.40625q4.03125 2.390625 6.140625 6.6875q2.125 4.296875 2.125 9.734375q0 5.515625 -2.234375 9.875q-2.21875 4.34375 -6.296875 6.59375q-4.078125 2.234375 -8.8125 2.234375q-5.109375 0 -9.140625 -2.46875q-4.03125 -2.484375 -6.109375 -6.765625q-2.078125 -4.28125 -2.078125 -9.046875zm4.9375 0.0625q0 6.5625 3.515625 10.34375q3.53125 3.765625 8.859375 3.765625q5.421875 0 8.90625 -3.8125q3.5 -3.8125 3.5 -10.8125q0 -4.421875 -1.5 -7.71875q-1.484375 -3.3125 -4.375 -5.125q-2.875 -1.8125 -6.453125 -1.8125q-5.109375 0 -8.78125 3.5q-3.671875 3.5 -3.671875 11.671875zm35.87079 17.59375l0 -36.265625l4.921875 0l19.046875 28.46875l0 -28.46875l4.59375 0l0 36.265625l-4.921875 0l-19.046875 -28.5l0 28.5l-4.59375 0zm35.00421 -11.65625l4.515625 -0.390625q0.328125 2.71875 1.5 4.46875q1.171875 1.734375 3.640625 2.8125q2.484375 1.078125 5.578125 1.078125q2.734375 0 4.84375 -0.8125q2.109375 -0.8125 3.125 -2.234375q1.03125 -1.421875 1.03125 -3.109375q0 -1.703125 -1.0 -2.96875q-0.984375 -1.28125 -3.25 -2.15625q-1.46875 -0.5625 -6.46875 -1.765625q-4.984375 -1.203125 -6.984375 -2.265625q-2.609375 -1.359375 -3.890625 -3.375q-1.265625 -2.015625 -1.265625 -4.515625q0 -2.734375 1.5625 -5.125q1.5625 -2.390625 4.546875 -3.625q3.0 -1.234375 6.65625 -1.234375q4.03125 0 7.109375 1.296875q3.078125 1.296875 4.734375 3.828125q1.65625 2.515625 1.78125 5.703125l-4.59375 0.34375q-0.375 -3.4375 -2.515625 -5.1875q-2.140625 -1.765625 -6.3125 -1.765625q-4.359375 0 -6.359375 1.609375q-1.984375 1.59375 -1.984375 3.84375q0 1.953125 1.421875 3.203125q1.375 1.265625 7.21875 2.59375q5.859375 1.328125 8.03125 2.3125q3.171875 1.453125 4.671875 3.703125q1.515625 2.234375 1.515625 5.15625q0 2.890625 -1.65625 5.453125q-1.65625 2.5625 -4.765625 3.984375q-3.09375 1.421875 -6.984375 1.421875q-4.921875 0 -8.25 -1.4375q-3.328125 -1.4375 -5.21875 -4.3125q-1.890625 -2.890625 -1.984375 -6.53125z" fill-rule="nonzero"/><path fill="#000000" fill-opacity="0.0" d="m256.92795 136.94766l701.1969 0l0 48.472443l-701.1969 0z" fill-rule="evenodd"/><path fill="#741b47" d="m451.53223 151.80017l2.28125 0l0 9.9375q0 2.578125 -0.59375 4.109375q-0.578125 1.515625 -2.109375 2.484375q-1.53125 0.953125 -4.015625 0.953125q-2.421875 0 -3.953125 -0.828125q-1.53125 -0.84375 -2.1875 -2.421875q-0.65625 -1.578125 -0.65625 -4.296875l0 -9.9375l2.265625 0l0 9.921875q0 2.234375 0.421875 3.296875q0.421875 1.0625 1.421875 1.640625q1.015625 0.5625 2.484375 0.5625q2.515625 0 3.578125 -1.125q1.0625 -1.140625 1.0625 -4.375l0 -9.921875zm6.0351562 17.1875l0 -17.1875l2.328125 0l9.03125 13.5l0 -13.5l2.171875 0l0 17.1875l-2.328125 0l-9.015625 -13.5l0 13.5l-2.1875 0zm17.363281 0l0 -17.1875l5.90625 0q2.015625 0 3.0625 0.25q1.484375 0.34375 2.515625 1.234375q1.359375 1.140625 2.03125 2.9375q0.6875 1.78125 0.6875 4.078125q0 1.953125 -0.46875 3.46875q-0.453125 1.515625 -1.171875 2.515625q-0.703125 0.984375 -1.5625 1.546875q-0.84375 0.5625 -2.046875 0.859375q-1.203125 0.296875 -2.765625 0.296875l-6.1875 0zm2.265625 -2.03125l3.671875 0q1.703125 0 2.65625 -0.3125q0.96875 -0.3125 1.546875 -0.890625q0.8125 -0.8125 1.265625 -2.171875q0.453125 -1.375 0.453125 -3.3125q0 -2.703125 -0.890625 -4.140625q-0.890625 -1.453125 -2.15625 -1.9375q-0.90625 -0.359375 -2.9375 -0.359375l-3.609375 0l0 13.125zm15.113281 2.03125l0 -17.1875l12.421875 0l0 2.03125l-10.15625 0l0 5.265625l9.5 0l0 2.015625l-9.5 0l0 5.84375l10.546875 0l0 2.03125l-12.8125 0zm15.9921875 0l0 -17.1875l7.609375 0q2.296875 0 3.484375 0.46875q1.203125 0.46875 1.921875 1.640625q0.71875 1.171875 0.71875 2.578125q0 1.828125 -1.1875 3.09375q-1.1875 1.25 -3.65625 1.59375q0.90625 0.421875 1.375 0.84375q1.0 0.921875 1.890625 2.296875l2.984375 4.671875l-2.859375 0l-2.28125 -3.578125q-0.984375 -1.546875 -1.640625 -2.359375q-0.640625 -0.828125 -1.15625 -1.15625q-0.5 -0.328125 -1.03125 -0.453125q-0.390625 -0.078125 -1.265625 -0.078125l-2.640625 0l0 7.625l-2.265625 0zm2.265625 -9.59375l4.890625 0q1.5625 0 2.4375 -0.328125q0.875 -0.328125 1.328125 -1.03125q0.46875 -0.703125 0.46875 -1.546875q0 -1.21875 -0.890625 -2.0q-0.875 -0.78125 -2.796875 -0.78125l-5.4375 0l0 5.6875zm14.253906 4.078125l2.140625 -0.1875q0.15625 1.28125 0.703125 2.109375q0.5625 0.828125 1.734375 1.34375q1.171875 0.5 2.640625 0.5q1.296875 0 2.296875 -0.375q1.0 -0.390625 1.484375 -1.0625q0.484375 -0.6875 0.484375 -1.484375q0 -0.796875 -0.46875 -1.40625q-0.46875 -0.609375 -1.546875 -1.015625q-0.6875 -0.265625 -3.0625 -0.828125q-2.359375 -0.578125 -3.3125 -1.078125q-1.234375 -0.640625 -1.84375 -1.59375q-0.59375 -0.96875 -0.59375 -2.140625q0 -1.3125 0.734375 -2.4375q0.75 -1.125 2.15625 -1.703125q1.421875 -0.59375 3.15625 -0.59375q1.90625 0 3.359375 0.609375q1.46875 0.609375 2.25 1.8125q0.796875 1.1875 0.84375 2.703125l-2.171875 0.171875q-0.171875 -1.640625 -1.1875 -2.46875q-1.015625 -0.828125 -3.0 -0.828125q-2.0625 0 -3.015625 0.765625q-0.9375 0.75 -0.9375 1.8125q0 0.921875 0.671875 1.515625q0.65625 0.609375 3.421875 1.234375q2.78125 0.625 3.8125 1.09375q1.5 0.6875 2.203125 1.75q0.71875 1.0625 0.71875 2.4375q0 1.375 -0.78125 2.59375q-0.78125 1.203125 -2.25 1.890625q-1.46875 0.671875 -3.3125 0.671875q-2.328125 0 -3.90625 -0.671875q-1.578125 -0.6875 -2.484375 -2.046875q-0.890625 -1.375 -0.9375 -3.09375zm21.148438 5.515625l0 -15.15625l-5.65625 0l0 -2.03125l13.625 0l0 2.03125l-5.6875 0l0 15.15625l-2.28125 0zm6.6289062 0l6.59375 -17.1875l2.453125 0l7.03125 17.1875l-2.59375 0l-2.0 -5.203125l-7.1875 0l-1.890625 5.203125l-2.40625 0zm4.953125 -7.0625l5.828125 0l-1.796875 -4.75q-0.8125 -2.171875 -1.21875 -3.5625q-0.328125 1.65625 -0.921875 3.28125l-1.890625 5.03125zm12.9140625 7.0625l0 -17.1875l2.328125 0l9.03125 13.5l0 -13.5l2.171875 0l0 17.1875l-2.328125 0l-9.015625 -13.5l0 13.5l-2.1875 0zm17.363281 0l0 -17.1875l5.90625 0q2.015625 0 3.0625 0.25q1.484375 0.34375 2.515625 1.234375q1.359375 1.140625 2.03125 2.9375q0.6875 1.78125 0.6875 4.078125q0 1.953125 -0.46875 3.46875q-0.453125 1.515625 -1.171875 2.515625q-0.703125 0.984375 -1.5625 1.546875q-0.84375 0.5625 -2.046875 0.859375q-1.203125 0.296875 -2.765625 0.296875l-6.1875 0zm2.265625 -2.03125l3.671875 0q1.703125 0 2.65625 -0.3125q0.96875 -0.3125 1.546875 -0.890625q0.8125 -0.8125 1.265625 -2.171875q0.453125 -1.375 0.453125 -3.3125q0 -2.703125 -0.890625 -4.140625q-0.890625 -1.453125 -2.15625 -1.9375q-0.90625 -0.359375 -2.9375 -0.359375l-3.609375 0l0 13.125zm15.441406 2.03125l0 -17.1875l2.28125 0l0 17.1875l-2.28125 0zm6.2617188 0l0 -17.1875l2.328125 0l9.03125 13.5l0 -13.5l2.171875 0l0 17.1875l-2.328125 0l-9.015625 -13.5l0 13.5l-2.1875 0zm25.394531 -6.734375l0 -2.015625l7.28125 -0.015625l0 6.375q-1.671875 1.328125 -3.453125 2.015625q-1.78125 0.671875 -3.65625 0.671875q-2.53125 0 -4.609375 -1.078125q-2.0625 -1.09375 -3.125 -3.140625q-1.046875 -2.0625 -1.046875 -4.59375q0 -2.5 1.046875 -4.671875q1.046875 -2.171875 3.015625 -3.21875q1.96875 -1.0625 4.53125 -1.0625q1.875 0 3.375 0.609375q1.5 0.59375 2.359375 1.671875q0.859375 1.078125 1.296875 2.8125l-2.046875 0.5625q-0.390625 -1.3125 -0.96875 -2.0625q-0.5625 -0.75 -1.640625 -1.203125q-1.0625 -0.453125 -2.359375 -0.453125q-1.5625 0 -2.703125 0.484375q-1.125 0.46875 -1.828125 1.25q-0.6875 0.765625 -1.078125 1.6875q-0.65625 1.59375 -0.65625 3.453125q0 2.296875 0.78125 3.84375q0.796875 1.546875 2.3125 2.296875q1.515625 0.75 3.203125 0.75q1.484375 0 2.890625 -0.5625q1.40625 -0.5625 2.125 -1.21875l0 -3.1875l-5.046875 0zm16.601562 -1.640625q0 -4.265625 2.296875 -6.6875q2.296875 -2.421875 5.9375 -2.421875q2.375 0 4.28125 1.140625q1.921875 1.125 2.921875 3.171875q1.0 2.03125 1.0 4.609375q0 2.609375 -1.0625 4.671875q-1.046875 2.0625 -2.984375 3.125q-1.9375 1.0625 -4.171875 1.0625q-2.421875 0 -4.34375 -1.171875q-1.90625 -1.171875 -2.890625 -3.203125q-0.984375 -2.03125 -0.984375 -4.296875zm2.34375 0.046875q0 3.09375 1.671875 4.890625q1.671875 1.78125 4.1875 1.78125q2.578125 0 4.234375 -1.796875q1.65625 -1.8125 1.65625 -5.125q0 -2.09375 -0.71875 -3.65625q-0.703125 -1.578125 -2.078125 -2.4375q-1.359375 -0.859375 -3.046875 -0.859375q-2.421875 0 -4.171875 1.65625q-1.734375 1.65625 -1.734375 5.546875zm17.058594 8.328125l0 -17.1875l7.609375 0q2.296875 0 3.484375 0.46875q1.203125 0.46875 1.921875 1.640625q0.71875 1.171875 0.71875 2.578125q0 1.828125 -1.1875 3.09375q-1.1875 1.25 -3.65625 1.59375q0.90625 0.421875 1.375 0.84375q1.0 0.921875 1.890625 2.296875l2.984375 4.671875l-2.859375 0l-2.28125 -3.578125q-0.984375 -1.546875 -1.640625 -2.359375q-0.640625 -0.828125 -1.15625 -1.15625q-0.5 -0.328125 -1.03125 -0.453125q-0.390625 -0.078125 -1.265625 -0.078125l-2.640625 0l0 7.625l-2.265625 0zm2.265625 -9.59375l4.890625 0q1.5625 0 2.4375 -0.328125q0.875 -0.328125 1.328125 -1.03125q0.46875 -0.703125 0.46875 -1.546875q0 -1.21875 -0.890625 -2.0q-0.875 -0.78125 -2.796875 -0.78125l-5.4375 0l0 5.6875zm15.410156 9.59375l0 -17.1875l2.28125 0l0 17.1875l-2.28125 0zm6.3398438 0l0 -17.1875l12.421875 0l0 2.03125l-10.15625 0l0 5.265625l9.5 0l0 2.015625l-9.5 0l0 5.84375l10.546875 0l0 2.03125l-12.8125 0zm15.9296875 0l0 -17.1875l2.328125 0l9.03125 13.5l0 -13.5l2.171875 0l0 17.1875l-2.328125 0l-9.015625 -13.5l0 13.5l-2.1875 0zm21.722656 0l0 -15.15625l-5.65625 0l0 -2.03125l13.625 0l0 2.03125l-5.6875 0l0 15.15625l-2.28125 0zm10.347656 0l0 -17.1875l12.421875 0l0 2.03125l-10.15625 0l0 5.265625l9.5 0l0 2.015625l-9.5 0l0 5.84375l10.546875 0l0 2.03125l-12.8125 0zm15.9609375 0l0 -17.1875l5.90625 0q2.015564 0 3.062439 0.25q1.484375 0.34375 2.515625 1.234375q1.359375 1.140625 2.03125 2.9375q0.6875 1.78125 0.6875 4.078125q0 1.953125 -0.46875 3.46875q-0.453125 1.515625 -1.171875 2.515625q-0.703125 0.984375 -1.5625 1.546875q-0.84375 0.5625 -2.046875 0.859375q-1.203064 0.296875 -2.765564 0.296875l-6.1875 0zm2.265625 -2.03125l3.671875 0q1.703125 0 2.656189 -0.3125q0.96875 -0.3125 1.546875 -0.890625q0.8125 -0.8125 1.265625 -2.171875q0.453125 -1.375 0.453125 -3.3125q0 -2.703125 -0.890625 -4.140625q-0.890625 -1.453125 -2.15625 -1.9375q-0.90625 -0.359375 -2.937439 -0.359375l-3.609375 0l0 13.125z" fill-rule="nonzero"/><path fill="#000000" fill-opacity="0.0" d="m37.05512 506.12335l304.25198 0l0 42.015747l-304.25198 0z" fill-rule="evenodd"/><path fill="#434343" d="m47.789494 533.04333l0 -13.359375l1.765625 0l0 13.359375l-1.765625 0zm4.683304 0l0 -9.671875l1.46875 0l0 1.359375q0.453125 -0.71875 1.203125 -1.140625q0.765625 -0.4375 1.71875 -0.4375q1.078125 0 1.765625 0.453125q0.6875 0.4375 0.96875 1.234375q1.15625 -1.6875 2.984375 -1.6875q1.4531212 0 2.2187462 0.796875q0.78125 0.796875 0.78125 2.453125l0 6.640625l-1.6406212 0l0 -6.09375q0 -0.984375 -0.15625 -1.40625q-0.15625 -0.4375 -0.578125 -0.703125q-0.421875 -0.265625 -0.984375 -0.265625q-1.015625 0 -1.6875 0.6875q-0.671875 0.671875 -0.671875 2.15625l0 5.625l-1.640625 0l0 -6.28125q0 -1.09375 -0.40625 -1.640625q-0.40625 -0.546875 -1.3125 -0.546875q-0.6875 0 -1.28125 0.359375q-0.59375 0.359375 -0.859375 1.0625q-0.25 0.703125 -0.25 2.03125l0 5.015625l-1.640625 0zm21.853298 -1.1875q-0.921875 0.765625 -1.765625 1.09375q-0.828125 0.3125 -1.796875 0.3125q-1.59375 0 -2.453125 -0.78125q-0.859375 -0.78125 -0.859375 -1.984375q0 -0.71875 0.328125 -1.296875q0.328125 -0.59375 0.84375 -0.9375q0.53125 -0.359375 1.1875 -0.546875q0.46875 -0.125 1.453125 -0.25q1.984375 -0.234375 2.921875 -0.5625q0.015625 -0.34375 0.015625 -0.421875q0 -1.0 -0.46875 -1.421875q-0.625 -0.546875 -1.875 -0.546875q-1.15625 0 -1.703125 0.40625q-0.546875 0.40625 -0.8125 1.421875l-1.609375 -0.21875q0.21875 -1.015625 0.71875 -1.640625q0.5 -0.640625 1.453125 -0.984375q0.953125 -0.34375 2.1875 -0.34375q1.25 0 2.015625 0.296875q0.78125 0.28125 1.140625 0.734375q0.375 0.4375 0.515625 1.109375q0.078125 0.421875 0.078125 1.515625l0 2.1875q0 2.28125 0.109375 2.890625q0.109375 0.59375 0.40625 1.15625l-1.703125 0q-0.265625 -0.515625 -0.328125 -1.1875zm-0.140625 -3.671875q-0.890625 0.375 -2.671875 0.625q-1.015625 0.140625 -1.4375 0.328125q-0.421875 0.1875 -0.65625 0.53125q-0.21875 0.34375 -0.21875 0.78125q0 0.65625 0.5 1.09375q0.5 0.4375 1.453125 0.4375q0.9375 0 1.671875 -0.40625q0.75 -0.421875 1.09375 -1.140625q0.265625 -0.5625 0.265625 -1.640625l0 -0.609375zm3.8913422 5.65625l1.59375 0.234375q0.109375 0.75 0.5625 1.078125q0.609375 0.453125 1.671875 0.453125q1.140625 0 1.75 -0.453125q0.625 -0.453125 0.84375 -1.265625q0.125 -0.5 0.109375 -2.109375q-1.0625 1.265625 -2.671875 1.265625q-2.0 0 -3.09375 -1.4375q-1.09375 -1.4375 -1.09375 -3.453125q0 -1.390625 0.5 -2.5625q0.515625 -1.171875 1.453125 -1.796875q0.953125 -0.640625 2.25 -0.640625q1.703125 0 2.8125 1.375l0 -1.15625l1.515625 0l0 8.359375q0 2.265625 -0.46875 3.203125q-0.453125 0.9375 -1.453125 1.484375q-0.984375 0.546875 -2.453125 0.546875q-1.71875 0 -2.796875 -0.78125q-1.0625 -0.765625 -1.03125 -2.34375zm1.359375 -5.8125q0 1.90625 0.75 2.78125q0.765625 0.875 1.90625 0.875q1.125 0 1.890625 -0.859375q0.765625 -0.875 0.765625 -2.734375q0 -1.78125 -0.796875 -2.671875q-0.78125 -0.90625 -1.890625 -0.90625q-1.09375 0 -1.859375 0.890625q-0.765625 0.875 -0.765625 2.625zm15.953842 1.90625l1.6875 0.203125q-0.40625 1.484375 -1.484375 2.3125q-1.078125 0.8125 -2.765625 0.8125q-2.125 0 -3.375 -1.296875q-1.234375 -1.3125 -1.234375 -3.671875q0 -2.453125 1.25 -3.796875q1.265625 -1.34375 3.265625 -1.34375q1.9375 0 3.15625 1.328125q1.234375 1.3125 1.234375 3.703125q0 0.15625 0 0.4375l-7.21875 0q0.09375 1.59375 0.90625 2.453125q0.8125 0.84375 2.015625 0.84375q0.90625 0 1.546875 -0.46875q0.640625 -0.484375 1.015625 -1.515625zm-5.390625 -2.65625l5.40625 0q-0.109375 -1.21875 -0.625 -1.828125q-0.78125 -0.953125 -2.03125 -0.953125q-1.125 0 -1.90625 0.765625q-0.765625 0.75 -0.84375 2.015625zm14.715271 5.765625l0 -8.40625l-1.453125 0l0 -1.265625l1.453125 0l0 -1.03125q0 -0.96875 0.171875 -1.453125q0.234375 -0.640625 0.828125 -1.03125q0.59375 -0.390625 1.671875 -0.390625q0.6875 0 1.53125 0.15625l-0.25 1.4375q-0.5 -0.09375 -0.953125 -0.09375q-0.75 0 -1.0625 0.328125q-0.3125 0.3125 -0.3125 1.1875l0 0.890625l1.890625 0l0 1.265625l-1.890625 0l0 8.40625l-1.625 0zm4.777054 0l0 -9.671875l1.46875 0l0 1.46875q0.5625 -1.03125 1.03125 -1.359375q0.484375 -0.328125 1.0625 -0.328125q0.828125 0 1.6875 0.53125l-0.5625 1.515625q-0.609375 -0.359375 -1.203125 -0.359375q-0.546875 0 -0.96875 0.328125q-0.421875 0.328125 -0.609375 0.890625q-0.28125 0.875 -0.28125 1.921875l0 5.0625l-1.625 0zm5.618927 -4.84375q0 -2.6875 1.484375 -3.96875q1.25 -1.078125 3.046875 -1.078125q2.0 0 3.265625 1.3125q1.265625 1.296875 1.265625 3.609375q0 1.859375 -0.5625 2.9375q-0.5625 1.0625 -1.640625 1.65625q-1.0625 0.59375 -2.328125 0.59375q-2.03125 0 -3.28125 -1.296875q-1.25 -1.3125 -1.25 -3.765625zm1.6875 0q0 1.859375 0.796875 2.796875q0.8125 0.921875 2.046875 0.921875q1.21875 0 2.03125 -0.921875q0.8125 -0.9375 0.8125 -2.84375q0 -1.796875 -0.8125 -2.71875q-0.8125 -0.921875 -2.03125 -0.921875q-1.234375 0 -2.046875 0.921875q-0.796875 0.90625 -0.796875 2.765625zm9.297592 4.84375l0 -9.671875l1.46875 0l0 1.359375q0.453125 -0.71875 1.203125 -1.140625q0.765625 -0.4375 1.71875 -0.4375q1.078125 0 1.765625 0.453125q0.6875 0.4375 0.96875 1.234375q1.15625 -1.6875 2.984375 -1.6875q1.453125 0 2.21875 0.796875q0.78125 0.796875 0.78125 2.453125l0 6.640625l-1.640625 0l0 -6.09375q0 -0.984375 -0.15625 -1.40625q-0.15625 -0.4375 -0.578125 -0.703125q-0.421875 -0.265625 -0.984375 -0.265625q-1.015625 0 -1.6875 0.6875q-0.671875 0.671875 -0.671875 2.15625l0 5.625l-1.640625 0l0 -6.28125q0 -1.09375 -0.40625 -1.640625q-0.40625 -0.546875 -1.3125 -0.546875q-0.6875 0 -1.28125 0.359375q-0.59375 0.359375 -0.859375 1.0625q-0.25 0.703125 -0.25 2.03125l0 5.015625l-1.640625 0zm20.724106 0l0 -13.359375l1.640625 0l0 4.796875q1.140625 -1.328125 2.890625 -1.328125q1.078125 0 1.859375 0.421875q0.796875 0.421875 1.140625 1.171875q0.34375 0.75 0.34375 2.171875l0 6.125l-1.640625 0l0 -6.125q0 -1.234375 -0.53125 -1.796875q-0.53125 -0.5625 -1.515625 -0.5625q-0.71875 0 -1.359375 0.390625q-0.640625 0.375 -0.921875 1.015625q-0.265625 0.640625 -0.265625 1.78125l0 5.296875l-1.640625 0zm13.953842 -1.46875l0.234375 1.453125q-0.6875 0.140625 -1.234375 0.140625q-0.890625 0 -1.390625 -0.28125q-0.484375 -0.28125 -0.6875 -0.734375q-0.203125 -0.46875 -0.203125 -1.9375l0 -5.578125l-1.203125 0l0 -1.265625l1.203125 0l0 -2.390625l1.625 -0.984375l0 3.375l1.65625 0l0 1.265625l-1.65625 0l0 5.671875q0 0.6875 0.078125 0.890625q0.09375 0.203125 0.28125 0.328125q0.203125 0.109375 0.578125 0.109375q0.265625 0 0.71875 -0.0625zm5.183304 0l0.234375 1.453125q-0.6875 0.140625 -1.234375 0.140625q-0.890625 0 -1.390625 -0.28125q-0.484375 -0.28125 -0.6875 -0.734375q-0.203125 -0.46875 -0.203125 -1.9375l0 -5.578125l-1.203125 0l0 -1.265625l1.203125 0l0 -2.390625l1.625 -0.984375l0 3.375l1.65625 0l0 1.265625l-1.65625 0l0 5.671875q0 0.6875 0.078125 0.890625q0.09375 0.203125 0.28125 0.328125q0.203125 0.109375 0.578125 0.109375q0.265625 0 0.71875 -0.0625zm1.6051788 5.171875l0 -13.375l1.484375 0l0 1.25q0.53125 -0.734375 1.1875 -1.09375q0.671875 -0.375 1.625 -0.375q1.234375 0 2.171875 0.640625q0.953125 0.625 1.4375 1.796875q0.484375 1.15625 0.484375 2.546875q0 1.484375 -0.53125 2.671875q-0.53125 1.1875 -1.546875 1.828125q-1.015625 0.625 -2.140625 0.625q-0.8125 0 -1.46875 -0.34375q-0.65625 -0.34375 -1.0625 -0.875l0 4.703125l-1.640625 0zm1.484375 -8.484375q0 1.859375 0.75 2.765625q0.765625 0.890625 1.828125 0.890625q1.09375 0 1.875 -0.921875q0.78125 -0.9375 0.78125 -2.875q0 -1.84375 -0.765625 -2.765625q-0.75 -0.921875 -1.8125 -0.921875q-1.046875 0 -1.859375 0.984375q-0.796875 0.96875 -0.796875 2.84375zm8.235092 1.890625l1.625 -0.25q0.125 0.96875 0.75 1.5q0.625 0.515625 1.75 0.515625q1.125 0 1.671875 -0.453125q0.546875 -0.46875 0.546875 -1.09375q0 -0.546875 -0.484375 -0.875q-0.328125 -0.21875 -1.671875 -0.546875q-1.8125 -0.46875 -2.515625 -0.796875q-0.6875 -0.328125 -1.046875 -0.90625q-0.359375 -0.59375 -0.359375 -1.3125q0 -0.640625 0.296875 -1.1875q0.296875 -0.5625 0.8125 -0.921875q0.375 -0.28125 1.03125 -0.46875q0.671875 -0.203125 1.421875 -0.203125q1.140625 0 2.0 0.328125q0.859375 0.328125 1.265625 0.890625q0.421875 0.5625 0.578125 1.5l-1.609375 0.21875q-0.109375 -0.75 -0.640625 -1.171875q-0.515625 -0.421875 -1.46875 -0.421875q-1.140625 0 -1.625 0.375q-0.46875 0.375 -0.46875 0.875q0 0.3125 0.1875 0.578125q0.203125 0.265625 0.640625 0.4375q0.234375 0.09375 1.4375 0.421875q1.75 0.453125 2.4375 0.75q0.6875 0.296875 1.078125 0.859375q0.390625 0.5625 0.390625 1.40625q0 0.828125 -0.484375 1.546875q-0.46875 0.71875 -1.375 1.125q-0.90625 0.390625 -2.046875 0.390625q-1.875 0 -2.875 -0.78125q-0.984375 -0.78125 -1.25 -2.328125zm10.4375 -4.921875l0 -1.859375l1.859375 0l0 1.859375l-1.859375 0zm0 7.8125l0 -1.875l1.859375 0l0 1.875l-1.859375 0zm3.4958038 0.234375l3.875 -13.8125l1.3125 0l-3.859375 13.8125l-1.328125 0zm5.183304 0l3.875 -13.8125l1.3125 0l-3.859375 13.8125l-1.328125 0zm12.683304 -0.234375l0 -1.21875q-0.90625 1.4375 -2.703125 1.4375q-1.15625 0 -2.125 -0.640625q-0.96875 -0.640625 -1.5 -1.78125q-0.53125 -1.140625 -0.53125 -2.625q0 -1.453125 0.484375 -2.625q0.484375 -1.1875 1.4375 -1.8125q0.96875 -0.625 2.171875 -0.625q0.875 0 1.546875 0.375q0.6875 0.359375 1.109375 0.953125l0 -4.796875l1.640625 0l0 13.359375l-1.53125 0zm-5.171875 -4.828125q0 1.859375 0.78125 2.78125q0.78125 0.921875 1.84375 0.921875q1.078125 0 1.828125 -0.875q0.75 -0.890625 0.75 -2.6875q0 -1.984375 -0.765625 -2.90625q-0.765625 -0.9375 -1.890625 -0.9375q-1.078125 0 -1.8125 0.890625q-0.734375 0.890625 -0.734375 2.8125zm9.281967 -6.640625l0 -1.890625l1.640625 0l0 1.890625l-1.640625 0zm0 11.46875l0 -9.671875l1.640625 0l0 9.671875l-1.640625 0zm10.457321 -1.1875q-0.921875 0.765625 -1.765625 1.09375q-0.828125 0.3125 -1.796875 0.3125q-1.59375 0 -2.453125 -0.78125q-0.859375 -0.78125 -0.859375 -1.984375q0 -0.71875 0.328125 -1.296875q0.328125 -0.59375 0.84375 -0.9375q0.53125 -0.359375 1.1875 -0.546875q0.46875 -0.125 1.453125 -0.25q1.984375 -0.234375 2.921875 -0.5625q0.015625 -0.34375 0.015625 -0.421875q0 -1.0 -0.46875 -1.421875q-0.625 -0.546875 -1.875 -0.546875q-1.15625 0 -1.703125 0.40625q-0.546875 0.40625 -0.8125 1.421875l-1.609375 -0.21875q0.21875 -1.015625 0.71875 -1.640625q0.5 -0.640625 1.453125 -0.984375q0.953125 -0.34375 2.1875 -0.34375q1.25 0 2.015625 0.296875q0.78125 0.28125 1.140625 0.734375q0.375 0.4375 0.515625 1.109375q0.078125 0.421875 0.078125 1.515625l0 2.1875q0 2.28125 0.109375 2.890625q0.109375 0.59375 0.40625 1.15625l-1.703125 0q-0.265625 -0.515625 -0.328125 -1.1875zm-0.140625 -3.671875q-0.890625 0.375 -2.671875 0.625q-1.015625 0.140625 -1.4375 0.328125q-0.421875 0.1875 -0.65625 0.53125q-0.21875 0.34375 -0.21875 0.78125q0 0.65625 0.5 1.09375q0.5 0.4375 1.453125 0.4375q0.9375 0 1.671875 -0.40625q0.75 -0.421875 1.09375 -1.140625q0.265625 -0.5625 0.265625 -1.640625l0 -0.609375zm7.781967 3.390625l0.234375 1.453125q-0.6875 0.140625 -1.234375 0.140625q-0.890625 0 -1.390625 -0.28125q-0.484375 -0.28125 -0.6875 -0.734375q-0.203125 -0.46875 -0.203125 -1.9375l0 -5.578125l-1.203125 0l0 -1.265625l1.203125 0l0 -2.390625l1.625 -0.984375l0 3.375l1.65625 0l0 1.265625l-1.65625 0l0 5.671875q0 0.6875 0.078125 0.890625q0.09375 0.203125 0.28125 0.328125q0.203125 0.109375 0.578125 0.109375q0.265625 0 0.71875 -0.0625zm7.917679 0.28125q-0.921875 0.765625 -1.765625 1.09375q-0.828125 0.3125 -1.796875 0.3125q-1.59375 0 -2.453125 -0.78125q-0.859375 -0.78125 -0.859375 -1.984375q0 -0.71875 0.328125 -1.296875q0.328125 -0.59375 0.84375 -0.9375q0.53125 -0.359375 1.1875 -0.546875q0.46875 -0.125 1.453125 -0.25q1.984375 -0.234375 2.921875 -0.5625q0.015625 -0.34375 0.015625 -0.421875q0 -1.0 -0.46875 -1.421875q-0.625 -0.546875 -1.875 -0.546875q-1.15625 0 -1.703125 0.40625q-0.546875 0.40625 -0.8125 1.421875l-1.609375 -0.21875q0.21875 -1.015625 0.71875 -1.640625q0.5 -0.640625 1.453125 -0.984375q0.953125 -0.34375 2.1875 -0.34375q1.25 0 2.015625 0.296875q0.78125 0.28125 1.140625 0.734375q0.375 0.4375 0.515625 1.109375q0.078125 0.421875 0.078125 1.515625l0 2.1875q0 2.28125 0.109375 2.890625q0.109375 0.59375 0.40625 1.15625l-1.703125 0q-0.265625 -0.515625 -0.328125 -1.1875zm-0.140625 -3.671875q-0.890625 0.375 -2.671875 0.625q-1.015625 0.140625 -1.4375 0.328125q-0.421875 0.1875 -0.65625 0.53125q-0.21875 0.34375 -0.21875 0.78125q0 0.65625 0.5 1.09375q0.5 0.4375 1.453125 0.4375q0.9375 0 1.671875 -0.40625q0.75 -0.421875 1.09375 -1.140625q0.265625 -0.5625 0.265625 -1.640625l0 -0.609375zm3.1100922 4.859375l3.53125 -5.03125l-3.265625 -4.640625l2.046875 0l1.484375 2.265625q0.421875 0.640625 0.671875 1.078125q0.40625 -0.59375 0.734375 -1.0625l1.640625 -2.28125l1.953125 0l-3.34375 4.546875l3.59375 5.125l-2.015625 0l-1.984375 -3.0l-0.515625 -0.8125l-2.546875 3.8125l-1.984375 0zm10.421875 -11.46875l0 -1.890625l1.640625 0l0 1.890625l-1.640625 0zm0 11.46875l0 -9.671875l1.640625 0l0 9.671875l-1.640625 0zm3.4885864 -2.890625l1.625 -0.25q0.125 0.96875 0.75 1.5q0.625 0.515625 1.75 0.515625q1.125 0 1.671875 -0.453125q0.546875 -0.46875 0.546875 -1.09375q0 -0.546875 -0.484375 -0.875q-0.328125 -0.21875 -1.671875 -0.546875q-1.8125 -0.46875 -2.515625 -0.796875q-0.6875 -0.328125 -1.046875 -0.90625q-0.359375 -0.59375 -0.359375 -1.3125q0 -0.640625 0.296875 -1.1875q0.296875 -0.5625 0.8125 -0.921875q0.375 -0.28125 1.03125 -0.46875q0.671875 -0.203125 1.421875 -0.203125q1.140625 0 2.0 0.328125q0.859375 0.328125 1.265625 0.890625q0.421875 0.5625 0.578125 1.5l-1.609375 0.21875q-0.109375 -0.75 -0.640625 -1.171875q-0.515625 -0.421875 -1.46875 -0.421875q-1.140625 0 -1.625 0.375q-0.46875 0.375 -0.46875 0.875q0 0.3125 0.1875 0.578125q0.203125 0.265625 0.640625 0.4375q0.234375 0.09375 1.4375 0.421875q1.75 0.453125 2.4375 0.75q0.6875 0.296875 1.078125 0.859375q0.390625 0.5625 0.390625 1.40625q0 0.828125 -0.484375 1.546875q-0.46875 0.71875 -1.375 1.125q-0.90625 0.390625 -2.046875 0.390625q-1.875 0 -2.875 -0.78125q-0.984375 -0.78125 -1.25 -2.328125zm10.4375 2.890625l0 -1.875l1.875 0l0 1.875l-1.875 0zm5.1207886 0l0 -8.40625l-1.453125 0l0 -1.265625l1.453125 0l0 -1.03125q0 -0.96875 0.171875 -1.453125q0.234375 -0.640625 0.828125 -1.03125q0.59375 -0.390625 1.671875 -0.390625q0.6875 0 1.53125 0.15625l-0.25 1.4375q-0.5 -0.09375 -0.953125 -0.09375q-0.75 0 -1.0625 0.328125q-0.3125 0.3125 -0.3125 1.1875l0 0.890625l1.890625 0l0 1.265625l-1.890625 0l0 8.40625l-1.625 0zm4.777069 0l0 -9.671875l1.46875 0l0 1.46875q0.5625 -1.03125 1.03125 -1.359375q0.484375 -0.328125 1.0625 -0.328125q0.828125 0 1.6875 0.53125l-0.5625 1.515625q-0.609375 -0.359375 -1.203125 -0.359375q-0.546875 0 -0.96875 0.328125q-0.421875 0.328125 -0.609375 0.890625q-0.28125 0.875 -0.28125 1.921875l0 5.0625l-1.625 0zm4.993927 0.234375l3.875 -13.8125l1.3125 0l-3.859375 13.8125l-1.328125 0z" fill-rule="nonzero"/></g></svg>
